<svg width="1024" height="663" viewBox="0 0 1024 663" fill="none" xmlns="http://www.w3.org/2000/svg">
<path d="M114.412 358.399C115.652 358.399 116.591 358.952 117.228 360.059C117.877 361.153 118.202 362.747 118.202 364.838C118.202 366.93 117.877 368.53 117.228 369.636C116.591 370.743 115.652 371.296 114.412 371.296C113.184 371.296 112.245 370.743 111.596 369.636C110.947 368.53 110.623 366.93 110.623 364.838C110.623 362.759 110.947 361.166 111.596 360.059C112.245 358.952 113.184 358.399 114.412 358.399ZM111.857 364.838C111.857 366.322 111.984 367.484 112.239 368.323L116.098 360.241C115.693 359.67 115.131 359.384 114.412 359.384C113.613 359.384 112.987 359.834 112.535 360.734C112.083 361.622 111.857 362.99 111.857 364.838ZM114.412 370.293C115.223 370.293 115.855 369.849 116.307 368.961C116.759 368.061 116.985 366.687 116.985 364.838C116.985 363.27 116.84 362.053 116.55 361.19L112.691 369.344C113.109 369.977 113.682 370.293 114.412 370.293Z" fill="url(#paint0_linear_175_198)" fill-opacity="0.6"/>
<path d="M115.455 390.996H118.01V391.963H111.388V390.996H114.343V380.744L111.527 382.513L111.04 381.692L114.517 379.43H115.455V390.996Z" fill="url(#paint1_linear_175_198)" fill-opacity="0.6"/>
<path d="M114.412 400.097C115.652 400.097 116.591 400.65 117.228 401.757C117.877 402.851 118.202 404.445 118.202 406.536C118.202 408.628 117.877 410.228 117.228 411.334C116.591 412.441 115.652 412.994 114.412 412.994C113.184 412.994 112.245 412.441 111.596 411.334C110.947 410.228 110.623 408.628 110.623 406.536C110.623 404.457 110.947 402.864 111.596 401.757C112.245 400.65 113.184 400.097 114.412 400.097ZM111.857 406.536C111.857 408.02 111.984 409.182 112.239 410.021L116.098 401.939C115.693 401.368 115.131 401.082 114.412 401.082C113.613 401.082 112.987 401.532 112.535 402.432C112.083 403.32 111.857 404.688 111.857 406.536ZM114.412 411.991C115.223 411.991 115.855 411.547 116.307 410.659C116.759 409.759 116.985 408.385 116.985 406.536C116.985 404.968 116.84 403.751 116.55 402.888L112.691 411.042C113.109 411.675 113.682 411.991 114.412 411.991Z" fill="url(#paint2_linear_175_198)" fill-opacity="0.6"/>
<path d="M115.455 432.694H118.01V433.661H111.388V432.694H114.343V422.442L111.527 424.211L111.04 423.39L114.517 421.128H115.455V432.694Z" fill="url(#paint3_linear_175_198)" fill-opacity="0.6"/>
<path d="M115.455 453.543H118.01V454.51H111.388V453.543H114.343V443.291L111.527 445.06L111.04 444.239L114.517 441.977H115.455V453.543Z" fill="url(#paint4_linear_175_198)" fill-opacity="0.6"/>
<path d="M114.412 462.644C115.652 462.644 116.591 463.197 117.228 464.304C117.877 465.398 118.202 466.992 118.202 469.083C118.202 471.175 117.877 472.775 117.228 473.881C116.591 474.988 115.652 475.541 114.412 475.541C113.184 475.541 112.245 474.988 111.596 473.881C110.947 472.775 110.623 471.175 110.623 469.083C110.623 467.004 110.947 465.411 111.596 464.304C112.245 463.197 113.184 462.644 114.412 462.644ZM111.857 469.083C111.857 470.567 111.984 471.729 112.239 472.568L116.098 464.486C115.693 463.915 115.131 463.629 114.412 463.629C113.613 463.629 112.987 464.079 112.535 464.979C112.083 465.867 111.857 467.235 111.857 469.083ZM114.412 474.538C115.223 474.538 115.855 474.094 116.307 473.206C116.759 472.306 116.985 470.932 116.985 469.083C116.985 467.515 116.84 466.298 116.55 465.435L112.691 473.589C113.109 474.222 113.682 474.538 114.412 474.538Z" fill="url(#paint5_linear_175_198)" fill-opacity="0.6"/>
<path d="M115.455 495.241H118.01V496.208H111.388V495.241H114.343V484.989L111.527 486.758L111.04 485.937L114.517 483.675H115.455V495.241Z" fill="url(#paint6_linear_175_198)" fill-opacity="0.6"/>
<path d="M114.412 504.342C115.652 504.342 116.591 504.895 117.228 506.002C117.877 507.096 118.202 508.69 118.202 510.781C118.202 512.873 117.877 514.473 117.228 515.579C116.591 516.686 115.652 517.239 114.412 517.239C113.184 517.239 112.245 516.686 111.596 515.579C110.947 514.473 110.623 512.873 110.623 510.781C110.623 508.702 110.947 507.109 111.596 506.002C112.245 504.895 113.184 504.342 114.412 504.342ZM111.857 510.781C111.857 512.265 111.984 513.427 112.239 514.266L116.098 506.184C115.693 505.613 115.131 505.327 114.412 505.327C113.613 505.327 112.987 505.777 112.535 506.677C112.083 507.565 111.857 508.933 111.857 510.781ZM114.412 516.236C115.223 516.236 115.855 515.792 116.307 514.904C116.759 514.004 116.985 512.63 116.985 510.781C116.985 509.213 116.84 507.996 116.55 507.133L112.691 515.287C113.109 515.92 113.682 516.236 114.412 516.236Z" fill="url(#paint7_linear_175_198)" fill-opacity="0.6"/>
<path d="M114.412 525.191C115.652 525.191 116.591 525.744 117.228 526.851C117.877 527.945 118.202 529.539 118.202 531.63C118.202 533.722 117.877 535.322 117.228 536.428C116.591 537.535 115.652 538.088 114.412 538.088C113.184 538.088 112.245 537.535 111.596 536.428C110.947 535.322 110.623 533.722 110.623 531.63C110.623 529.551 110.947 527.958 111.596 526.851C112.245 525.744 113.184 525.191 114.412 525.191ZM111.857 531.63C111.857 533.114 111.984 534.276 112.239 535.115L116.098 527.033C115.693 526.462 115.131 526.176 114.412 526.176C113.613 526.176 112.987 526.626 112.535 527.526C112.083 528.414 111.857 529.782 111.857 531.63ZM114.412 537.085C115.223 537.085 115.855 536.641 116.307 535.753C116.759 534.853 116.985 533.479 116.985 531.63C116.985 530.062 116.84 528.845 116.55 527.982L112.691 536.136C113.109 536.769 113.682 537.085 114.412 537.085Z" fill="url(#paint8_linear_175_198)" fill-opacity="0.6"/>
<path d="M115.455 557.788H118.01V558.755H111.388V557.788H114.343V547.536L111.527 549.305L111.04 548.484L114.517 546.222H115.455V557.788Z" fill="url(#paint9_linear_175_198)" fill-opacity="0.6"/>
<path d="M114.412 566.889C115.652 566.889 116.591 567.442 117.228 568.549C117.877 569.643 118.202 571.237 118.202 573.328C118.202 575.42 117.877 577.02 117.228 578.126C116.591 579.233 115.652 579.786 114.412 579.786C113.184 579.786 112.245 579.233 111.596 578.126C110.947 577.02 110.623 575.42 110.623 573.328C110.623 571.249 110.947 569.656 111.596 568.549C112.245 567.442 113.184 566.889 114.412 566.889ZM111.857 573.328C111.857 574.812 111.984 575.974 112.239 576.813L116.098 568.731C115.693 568.16 115.131 567.874 114.412 567.874C113.613 567.874 112.987 568.324 112.535 569.224C112.083 570.112 111.857 571.48 111.857 573.328ZM114.412 578.783C115.223 578.783 115.855 578.339 116.307 577.451C116.759 576.551 116.985 575.177 116.985 573.328C116.985 571.76 116.84 570.543 116.55 569.68L112.691 577.834C113.109 578.467 113.682 578.783 114.412 578.783Z" fill="url(#paint10_linear_175_198)" fill-opacity="0.6"/>
<path d="M115.455 599.486H118.01V600.453H111.388V599.486H114.343V589.234L111.527 591.003L111.04 590.182L114.517 587.92H115.455V599.486Z" fill="url(#paint11_linear_175_198)" fill-opacity="0.6"/>
<path d="M115.455 620.335H118.01V621.302H111.388V620.335H114.343V610.083L111.527 611.852L111.04 611.031L114.517 608.769H115.455V620.335Z" fill="url(#paint12_linear_175_198)" fill-opacity="0.6"/>
<path d="M146.694 400.097C147.934 400.097 148.873 400.65 149.51 401.757C150.159 402.851 150.484 404.445 150.484 406.536C150.484 408.628 150.159 410.228 149.51 411.334C148.873 412.441 147.934 412.994 146.694 412.994C145.466 412.994 144.527 412.441 143.878 411.334C143.229 410.228 142.905 408.628 142.905 406.536C142.905 404.457 143.229 402.864 143.878 401.757C144.527 400.65 145.466 400.097 146.694 400.097ZM144.139 406.536C144.139 408.02 144.267 409.182 144.522 410.021L148.381 401.939C147.975 401.368 147.413 401.082 146.694 401.082C145.895 401.082 145.269 401.532 144.817 402.432C144.365 403.32 144.139 404.688 144.139 406.536ZM146.694 411.991C147.506 411.991 148.137 411.547 148.589 410.659C149.041 409.759 149.267 408.385 149.267 406.536C149.267 404.968 149.122 403.751 148.832 402.888L144.974 411.042C145.391 411.675 145.964 411.991 146.694 411.991Z" fill="url(#paint13_linear_175_198)" fill-opacity="0.6"/>
<path d="M147.737 432.694H150.293V433.661H143.67V432.694H146.625V422.442L143.809 424.211L143.322 423.39L146.799 421.128H147.737V432.694Z" fill="url(#paint14_linear_175_198)" fill-opacity="0.6"/>
<path d="M146.694 441.795C147.934 441.795 148.873 442.348 149.51 443.455C150.159 444.549 150.484 446.143 150.484 448.234C150.484 450.326 150.159 451.926 149.51 453.032C148.873 454.139 147.934 454.692 146.694 454.692C145.466 454.692 144.527 454.139 143.878 453.032C143.229 451.926 142.905 450.326 142.905 448.234C142.905 446.155 143.229 444.562 143.878 443.455C144.527 442.348 145.466 441.795 146.694 441.795ZM144.139 448.234C144.139 449.718 144.267 450.88 144.522 451.719L148.381 443.637C147.975 443.066 147.413 442.78 146.694 442.78C145.895 442.78 145.269 443.23 144.817 444.13C144.365 445.018 144.139 446.386 144.139 448.234ZM146.694 453.689C147.506 453.689 148.137 453.245 148.589 452.357C149.041 451.457 149.267 450.083 149.267 448.234C149.267 446.666 149.122 445.449 148.832 444.586L144.974 452.74C145.391 453.373 145.964 453.689 146.694 453.689Z" fill="url(#paint15_linear_175_198)" fill-opacity="0.6"/>
<path d="M146.694 462.644C147.934 462.644 148.873 463.197 149.51 464.304C150.159 465.398 150.484 466.992 150.484 469.083C150.484 471.175 150.159 472.775 149.51 473.881C148.873 474.988 147.934 475.541 146.694 475.541C145.466 475.541 144.527 474.988 143.878 473.881C143.229 472.775 142.905 471.175 142.905 469.083C142.905 467.004 143.229 465.411 143.878 464.304C144.527 463.197 145.466 462.644 146.694 462.644ZM144.139 469.083C144.139 470.567 144.267 471.729 144.522 472.568L148.381 464.486C147.975 463.915 147.413 463.629 146.694 463.629C145.895 463.629 145.269 464.079 144.817 464.979C144.365 465.867 144.139 467.235 144.139 469.083ZM146.694 474.538C147.506 474.538 148.137 474.094 148.589 473.206C149.041 472.306 149.267 470.932 149.267 469.083C149.267 467.515 149.122 466.298 148.832 465.435L144.974 473.589C145.391 474.222 145.964 474.538 146.694 474.538Z" fill="url(#paint16_linear_175_198)" fill-opacity="0.6"/>
<path d="M147.737 495.241H150.293V496.208H143.67V495.241H146.625V484.989L143.809 486.758L143.322 485.937L146.799 483.675H147.737V495.241Z" fill="url(#paint17_linear_175_198)" fill-opacity="0.6"/>
<path d="M146.694 504.342C147.934 504.342 148.873 504.895 149.51 506.002C150.159 507.096 150.484 508.69 150.484 510.781C150.484 512.873 150.159 514.473 149.51 515.579C148.873 516.686 147.934 517.239 146.694 517.239C145.466 517.239 144.527 516.686 143.878 515.579C143.229 514.473 142.905 512.873 142.905 510.781C142.905 508.702 143.229 507.109 143.878 506.002C144.527 504.895 145.466 504.342 146.694 504.342ZM144.139 510.781C144.139 512.265 144.267 513.427 144.522 514.266L148.381 506.184C147.975 505.613 147.413 505.327 146.694 505.327C145.895 505.327 145.269 505.777 144.817 506.677C144.365 507.565 144.139 508.933 144.139 510.781ZM146.694 516.236C147.506 516.236 148.137 515.792 148.589 514.904C149.041 514.004 149.267 512.63 149.267 510.781C149.267 509.213 149.122 507.996 148.832 507.133L144.974 515.287C145.391 515.92 145.964 516.236 146.694 516.236Z" fill="url(#paint18_linear_175_198)" fill-opacity="0.6"/>
<path d="M147.737 536.939H150.293V537.906H143.67V536.939H146.625V526.687L143.809 528.456L143.322 527.635L146.799 525.373H147.737V536.939Z" fill="url(#paint19_linear_175_198)" fill-opacity="0.6"/>
<path d="M146.694 546.04C147.934 546.04 148.873 546.593 149.51 547.7C150.159 548.794 150.484 550.388 150.484 552.479C150.484 554.571 150.159 556.171 149.51 557.277C148.873 558.384 147.934 558.937 146.694 558.937C145.466 558.937 144.527 558.384 143.878 557.277C143.229 556.171 142.905 554.571 142.905 552.479C142.905 550.4 143.229 548.807 143.878 547.7C144.527 546.593 145.466 546.04 146.694 546.04ZM144.139 552.479C144.139 553.963 144.267 555.125 144.522 555.964L148.381 547.882C147.975 547.311 147.413 547.025 146.694 547.025C145.895 547.025 145.269 547.475 144.817 548.375C144.365 549.263 144.139 550.631 144.139 552.479ZM146.694 557.934C147.506 557.934 148.137 557.49 148.589 556.602C149.041 555.702 149.267 554.328 149.267 552.479C149.267 550.911 149.122 549.694 148.832 548.831L144.974 556.985C145.391 557.618 145.964 557.934 146.694 557.934Z" fill="url(#paint20_linear_175_198)" fill-opacity="0.6"/>
<path d="M146.694 566.889C147.934 566.889 148.873 567.442 149.51 568.549C150.159 569.643 150.484 571.237 150.484 573.328C150.484 575.42 150.159 577.02 149.51 578.126C148.873 579.233 147.934 579.786 146.694 579.786C145.466 579.786 144.527 579.233 143.878 578.126C143.229 577.02 142.905 575.42 142.905 573.328C142.905 571.249 143.229 569.656 143.878 568.549C144.527 567.442 145.466 566.889 146.694 566.889ZM144.139 573.328C144.139 574.812 144.267 575.974 144.522 576.813L148.381 568.731C147.975 568.16 147.413 567.874 146.694 567.874C145.895 567.874 145.269 568.324 144.817 569.224C144.365 570.112 144.139 571.48 144.139 573.328ZM146.694 578.783C147.506 578.783 148.137 578.339 148.589 577.451C149.041 576.551 149.267 575.177 149.267 573.328C149.267 571.76 149.122 570.543 148.832 569.68L144.974 577.834C145.391 578.467 145.964 578.783 146.694 578.783Z" fill="url(#paint21_linear_175_198)" fill-opacity="0.6"/>
<path d="M147.737 599.486H150.293V600.453H143.67V599.486H146.625V589.234L143.809 591.003L143.322 590.182L146.799 587.92H147.737V599.486Z" fill="url(#paint22_linear_175_198)" fill-opacity="0.6"/>
<path d="M146.694 608.587C147.934 608.587 148.873 609.14 149.51 610.247C150.159 611.341 150.484 612.935 150.484 615.026C150.484 617.118 150.159 618.718 149.51 619.824C148.873 620.931 147.934 621.484 146.694 621.484C145.466 621.484 144.527 620.931 143.878 619.824C143.229 618.718 142.905 617.118 142.905 615.026C142.905 612.947 143.229 611.354 143.878 610.247C144.527 609.14 145.466 608.587 146.694 608.587ZM144.139 615.026C144.139 616.51 144.267 617.672 144.522 618.511L148.381 610.429C147.975 609.858 147.413 609.572 146.694 609.572C145.895 609.572 145.269 610.022 144.817 610.922C144.365 611.81 144.139 613.178 144.139 615.026ZM146.694 620.481C147.506 620.481 148.137 620.037 148.589 619.149C149.041 618.249 149.267 616.875 149.267 615.026C149.267 613.458 149.122 612.241 148.832 611.378L144.974 619.532C145.391 620.165 145.964 620.481 146.694 620.481Z" fill="url(#paint23_linear_175_198)" fill-opacity="0.6"/>
<path d="M147.737 641.184H150.293V642.151H143.67V641.184H146.625V630.932L143.809 632.701L143.322 631.88L146.799 629.618H147.737V641.184Z" fill="url(#paint24_linear_175_198)" fill-opacity="0.6"/>
<path d="M147.737 662.033H150.293V663H143.67V662.033H146.625V651.781L143.809 653.55L143.322 652.729L146.799 650.467H147.737V662.033Z" fill="url(#paint25_linear_175_198)" fill-opacity="0.6"/>
<path d="M98.2712 420.946C99.5111 420.946 100.45 421.499 101.087 422.606C101.736 423.7 102.061 425.294 102.061 427.385C102.061 429.477 101.736 431.077 101.087 432.183C100.45 433.29 99.5111 433.843 98.2712 433.843C97.0428 433.843 96.1041 433.29 95.4552 432.183C94.8062 431.077 94.4818 429.477 94.4818 427.385C94.4818 425.306 94.8062 423.713 95.4552 422.606C96.1041 421.499 97.0428 420.946 98.2712 420.946ZM95.7159 427.385C95.7159 428.869 95.8434 430.031 96.0983 430.87L99.9573 422.788C99.5517 422.217 98.9897 421.931 98.2712 421.931C97.4716 421.931 96.8458 422.381 96.3938 423.281C95.9419 424.169 95.7159 425.537 95.7159 427.385ZM98.2712 432.84C99.0824 432.84 99.7139 432.396 100.166 431.508C100.618 430.608 100.844 429.234 100.844 427.385C100.844 425.817 100.699 424.6 100.409 423.737L96.5503 431.891C96.9675 432.524 97.5411 432.84 98.2712 432.84Z" fill="url(#paint26_linear_175_198)" fill-opacity="0.6"/>
<path d="M98.2712 441.795C99.5111 441.795 100.45 442.348 101.087 443.455C101.736 444.549 102.061 446.143 102.061 448.234C102.061 450.326 101.736 451.926 101.087 453.032C100.45 454.139 99.5111 454.692 98.2712 454.692C97.0428 454.692 96.1041 454.139 95.4552 453.032C94.8062 451.926 94.4818 450.326 94.4818 448.234C94.4818 446.155 94.8062 444.562 95.4552 443.455C96.1041 442.348 97.0428 441.795 98.2712 441.795ZM95.7159 448.234C95.7159 449.718 95.8434 450.88 96.0983 451.719L99.9573 443.637C99.5517 443.066 98.9897 442.78 98.2712 442.78C97.4716 442.78 96.8458 443.23 96.3938 444.13C95.9419 445.018 95.7159 446.386 95.7159 448.234ZM98.2712 453.689C99.0824 453.689 99.7139 453.245 100.166 452.357C100.618 451.457 100.844 450.083 100.844 448.234C100.844 446.666 100.699 445.449 100.409 444.586L96.5503 452.74C96.9675 453.373 97.5411 453.689 98.2712 453.689Z" fill="url(#paint27_linear_175_198)" fill-opacity="0.6"/>
<path d="M99.3141 474.392H101.869V475.359H95.2466V474.392H98.2016V464.14L95.3857 465.909L94.8989 465.088L98.3755 462.826H99.3141V474.392Z" fill="url(#paint28_linear_175_198)" fill-opacity="0.6"/>
<path d="M98.2712 483.493C99.5111 483.493 100.45 484.046 101.087 485.153C101.736 486.247 102.061 487.841 102.061 489.932C102.061 492.024 101.736 493.624 101.087 494.73C100.45 495.837 99.5111 496.39 98.2712 496.39C97.0428 496.39 96.1041 495.837 95.4552 494.73C94.8062 493.624 94.4818 492.024 94.4818 489.932C94.4818 487.853 94.8062 486.26 95.4552 485.153C96.1041 484.046 97.0428 483.493 98.2712 483.493ZM95.7159 489.932C95.7159 491.416 95.8434 492.578 96.0983 493.417L99.9573 485.335C99.5517 484.764 98.9897 484.478 98.2712 484.478C97.4716 484.478 96.8458 484.928 96.3938 485.828C95.9419 486.716 95.7159 488.084 95.7159 489.932ZM98.2712 495.387C99.0824 495.387 99.7139 494.943 100.166 494.055C100.618 493.155 100.844 491.781 100.844 489.932C100.844 488.364 100.699 487.147 100.409 486.284L96.5503 494.438C96.9675 495.071 97.5411 495.387 98.2712 495.387Z" fill="url(#paint29_linear_175_198)" fill-opacity="0.6"/>
<path d="M99.3141 516.09H101.869V517.057H95.2466V516.09H98.2016V505.838L95.3857 507.607L94.8989 506.786L98.3755 504.524H99.3141V516.09Z" fill="url(#paint30_linear_175_198)" fill-opacity="0.6"/>
<path d="M99.3141 536.939H101.869V537.906H95.2466V536.939H98.2016V526.687L95.3857 528.456L94.8989 527.635L98.3755 525.373H99.3141V536.939Z" fill="url(#paint31_linear_175_198)" fill-opacity="0.6"/>
<path d="M131.596 390.996H134.152V391.963H127.529V390.996H130.484V380.744L127.668 382.513L127.181 381.692L130.658 379.43H131.596V390.996Z" fill="url(#paint32_linear_175_198)" fill-opacity="0.6"/>
<path d="M130.553 400.097C131.793 400.097 132.732 400.65 133.369 401.757C134.018 402.851 134.343 404.445 134.343 406.536C134.343 408.628 134.018 410.228 133.369 411.334C132.732 412.441 131.793 412.994 130.553 412.994C129.325 412.994 128.386 412.441 127.737 411.334C127.088 410.228 126.764 408.628 126.764 406.536C126.764 404.457 127.088 402.864 127.737 401.757C128.386 400.65 129.325 400.097 130.553 400.097ZM127.998 406.536C127.998 408.02 128.126 409.182 128.381 410.021L132.239 401.939C131.834 401.368 131.272 401.082 130.553 401.082C129.754 401.082 129.128 401.532 128.676 402.432C128.224 403.32 127.998 404.688 127.998 406.536ZM130.553 411.991C131.365 411.991 131.996 411.547 132.448 410.659C132.9 409.759 133.126 408.385 133.126 406.536C133.126 404.968 132.981 403.751 132.691 402.888L128.832 411.042C129.25 411.675 129.823 411.991 130.553 411.991Z" fill="url(#paint33_linear_175_198)" fill-opacity="0.6"/>
<path d="M131.596 432.694H134.152V433.661H127.529V432.694H130.484V422.442L127.668 424.211L127.181 423.39L130.658 421.128H131.596V432.694Z" fill="url(#paint34_linear_175_198)" fill-opacity="0.6"/>
<path d="M131.596 453.543H134.152V454.51H127.529V453.543H130.484V443.291L127.668 445.06L127.181 444.239L130.658 441.977H131.596V453.543Z" fill="url(#paint35_linear_175_198)" fill-opacity="0.6"/>
<path d="M130.553 462.644C131.793 462.644 132.732 463.197 133.369 464.304C134.018 465.398 134.343 466.992 134.343 469.083C134.343 471.175 134.018 472.775 133.369 473.881C132.732 474.988 131.793 475.541 130.553 475.541C129.325 475.541 128.386 474.988 127.737 473.881C127.088 472.775 126.764 471.175 126.764 469.083C126.764 467.004 127.088 465.411 127.737 464.304C128.386 463.197 129.325 462.644 130.553 462.644ZM127.998 469.083C127.998 470.567 128.126 471.729 128.381 472.568L132.239 464.486C131.834 463.915 131.272 463.629 130.553 463.629C129.754 463.629 129.128 464.079 128.676 464.979C128.224 465.867 127.998 467.235 127.998 469.083ZM130.553 474.538C131.365 474.538 131.996 474.094 132.448 473.206C132.9 472.306 133.126 470.932 133.126 469.083C133.126 467.515 132.981 466.298 132.691 465.435L128.832 473.589C129.25 474.222 129.823 474.538 130.553 474.538Z" fill="url(#paint36_linear_175_198)" fill-opacity="0.6"/>
<path d="M131.596 495.241H134.152V496.208H127.529V495.241H130.484V484.989L127.668 486.758L127.181 485.937L130.658 483.675H131.596V495.241Z" fill="url(#paint37_linear_175_198)" fill-opacity="0.6"/>
<path d="M131.596 516.09H134.152V517.057H127.529V516.09H130.484V505.838L127.668 507.607L127.181 506.786L130.658 504.524H131.596V516.09Z" fill="url(#paint38_linear_175_198)" fill-opacity="0.6"/>
<path d="M130.553 525.191C131.793 525.191 132.732 525.744 133.369 526.851C134.018 527.945 134.343 529.539 134.343 531.63C134.343 533.722 134.018 535.322 133.369 536.428C132.732 537.535 131.793 538.088 130.553 538.088C129.325 538.088 128.386 537.535 127.737 536.428C127.088 535.322 126.764 533.722 126.764 531.63C126.764 529.551 127.088 527.958 127.737 526.851C128.386 525.744 129.325 525.191 130.553 525.191ZM127.998 531.63C127.998 533.114 128.126 534.276 128.381 535.115L132.239 527.033C131.834 526.462 131.272 526.176 130.553 526.176C129.754 526.176 129.128 526.626 128.676 527.526C128.224 528.414 127.998 529.782 127.998 531.63ZM130.553 537.085C131.365 537.085 131.996 536.641 132.448 535.753C132.9 534.853 133.126 533.479 133.126 531.63C133.126 530.062 132.981 528.845 132.691 527.982L128.832 536.136C129.25 536.769 129.823 537.085 130.553 537.085Z" fill="url(#paint39_linear_175_198)" fill-opacity="0.6"/>
<path d="M131.596 557.788H134.152V558.755H127.529V557.788H130.484V547.536L127.668 549.305L127.181 548.484L130.658 546.222H131.596V557.788Z" fill="url(#paint40_linear_175_198)" fill-opacity="0.6"/>
<path d="M130.553 566.889C131.793 566.889 132.732 567.442 133.369 568.549C134.018 569.643 134.343 571.237 134.343 573.328C134.343 575.42 134.018 577.02 133.369 578.126C132.732 579.233 131.793 579.786 130.553 579.786C129.325 579.786 128.386 579.233 127.737 578.126C127.088 577.02 126.764 575.42 126.764 573.328C126.764 571.249 127.088 569.656 127.737 568.549C128.386 567.442 129.325 566.889 130.553 566.889ZM127.998 573.328C127.998 574.812 128.126 575.974 128.381 576.813L132.239 568.731C131.834 568.16 131.272 567.874 130.553 567.874C129.754 567.874 129.128 568.324 128.676 569.224C128.224 570.112 127.998 571.48 127.998 573.328ZM130.553 578.783C131.365 578.783 131.996 578.339 132.448 577.451C132.9 576.551 133.126 575.177 133.126 573.328C133.126 571.76 132.981 570.543 132.691 569.68L128.832 577.834C129.25 578.467 129.823 578.783 130.553 578.783Z" fill="url(#paint41_linear_175_198)" fill-opacity="0.6"/>
<path d="M162.835 379.248C164.075 379.248 165.014 379.801 165.651 380.908C166.3 382.002 166.625 383.596 166.625 385.687C166.625 387.779 166.3 389.379 165.651 390.485C165.014 391.592 164.075 392.145 162.835 392.145C161.607 392.145 160.668 391.592 160.019 390.485C159.371 389.379 159.046 387.779 159.046 385.687C159.046 383.608 159.371 382.015 160.019 380.908C160.668 379.801 161.607 379.248 162.835 379.248ZM160.28 385.687C160.28 387.171 160.408 388.333 160.663 389.172L164.522 381.09C164.116 380.519 163.554 380.233 162.835 380.233C162.036 380.233 161.41 380.683 160.958 381.583C160.506 382.471 160.28 383.839 160.28 385.687ZM162.835 391.142C163.647 391.142 164.278 390.698 164.73 389.81C165.182 388.91 165.408 387.536 165.408 385.687C165.408 384.119 165.263 382.902 164.974 382.039L161.115 390.193C161.532 390.826 162.105 391.142 162.835 391.142Z" fill="url(#paint42_linear_175_198)" fill-opacity="0.6"/>
<path d="M163.878 411.845H166.434V412.812H159.811V411.845H162.766V401.593L159.95 403.362L159.463 402.541L162.94 400.279H163.878V411.845Z" fill="url(#paint43_linear_175_198)" fill-opacity="0.6"/>
<path d="M163.878 432.694H166.434V433.661H159.811V432.694H162.766V422.442L159.95 424.211L159.463 423.39L162.94 421.128H163.878V432.694Z" fill="url(#paint44_linear_175_198)" fill-opacity="0.6"/>
<path d="M162.835 441.795C164.075 441.795 165.014 442.348 165.651 443.455C166.3 444.549 166.625 446.143 166.625 448.234C166.625 450.326 166.3 451.926 165.651 453.032C165.014 454.139 164.075 454.692 162.835 454.692C161.607 454.692 160.668 454.139 160.019 453.032C159.371 451.926 159.046 450.326 159.046 448.234C159.046 446.155 159.371 444.562 160.019 443.455C160.668 442.348 161.607 441.795 162.835 441.795ZM160.28 448.234C160.28 449.718 160.408 450.88 160.663 451.719L164.522 443.637C164.116 443.066 163.554 442.78 162.835 442.78C162.036 442.78 161.41 443.23 160.958 444.13C160.506 445.018 160.28 446.386 160.28 448.234ZM162.835 453.689C163.647 453.689 164.278 453.245 164.73 452.357C165.182 451.457 165.408 450.083 165.408 448.234C165.408 446.666 165.263 445.449 164.974 444.586L161.115 452.74C161.532 453.373 162.105 453.689 162.835 453.689Z" fill="url(#paint45_linear_175_198)" fill-opacity="0.6"/>
<path d="M162.835 462.644C164.075 462.644 165.014 463.197 165.651 464.304C166.3 465.398 166.625 466.992 166.625 469.083C166.625 471.175 166.3 472.775 165.651 473.881C165.014 474.988 164.075 475.541 162.835 475.541C161.607 475.541 160.668 474.988 160.019 473.881C159.371 472.775 159.046 471.175 159.046 469.083C159.046 467.004 159.371 465.411 160.019 464.304C160.668 463.197 161.607 462.644 162.835 462.644ZM160.28 469.083C160.28 470.567 160.408 471.729 160.663 472.568L164.522 464.486C164.116 463.915 163.554 463.629 162.835 463.629C162.036 463.629 161.41 464.079 160.958 464.979C160.506 465.867 160.28 467.235 160.28 469.083ZM162.835 474.538C163.647 474.538 164.278 474.094 164.73 473.206C165.182 472.306 165.408 470.932 165.408 469.083C165.408 467.515 165.263 466.298 164.974 465.435L161.115 473.589C161.532 474.222 162.105 474.538 162.835 474.538Z" fill="url(#paint46_linear_175_198)" fill-opacity="0.6"/>
<g opacity="0.6">
<path d="M849.854 95.0547C851.037 95.0547 851.932 95.5857 852.54 96.6478C853.159 97.6982 853.469 99.2271 853.469 101.235C853.469 103.242 853.159 104.777 852.54 105.839C851.932 106.901 851.037 107.432 849.854 107.432C848.682 107.432 847.786 106.901 847.167 105.839C846.548 104.777 846.239 103.242 846.239 101.235C846.239 99.2388 846.548 97.7099 847.167 96.6478C847.786 95.5857 848.682 95.0547 849.854 95.0547ZM847.416 101.235C847.416 102.658 847.538 103.773 847.781 104.578L851.462 96.8228C851.075 96.2743 850.539 96 849.854 96C849.091 96 848.494 96.4319 848.063 97.2955C847.632 98.1475 847.416 99.4605 847.416 101.235ZM849.854 106.469C850.628 106.469 851.23 106.043 851.661 105.191C852.093 104.327 852.308 103.009 852.308 101.235C852.308 99.729 852.17 98.5619 851.894 97.7332L848.212 105.559C848.61 106.166 849.157 106.469 849.854 106.469Z" fill="url(#paint47_linear_175_198)"/>
<path d="M850.849 126.337H853.287V127.265H846.968V126.337H849.787V116.498L847.101 118.196L846.637 117.408L849.953 115.238H850.849V126.337Z" fill="url(#paint48_linear_175_198)"/>
<path d="M849.854 135.07C851.037 135.07 851.932 135.601 852.54 136.663C853.159 137.714 853.469 139.243 853.469 141.25C853.469 143.258 853.159 144.792 852.54 145.855C851.932 146.917 851.037 147.448 849.854 147.448C848.682 147.448 847.786 146.917 847.167 145.855C846.548 144.792 846.239 143.258 846.239 141.25C846.239 139.254 846.548 137.726 847.167 136.663C847.786 135.601 848.682 135.07 849.854 135.07ZM847.416 141.25C847.416 142.674 847.538 143.789 847.781 144.594L851.462 136.839C851.075 136.29 850.539 136.016 849.854 136.016C849.091 136.016 848.494 136.448 848.063 137.311C847.632 138.163 847.416 139.476 847.416 141.25ZM849.854 146.485C850.628 146.485 851.23 146.059 851.661 145.207C852.093 144.343 852.308 143.024 852.308 141.25C852.308 139.745 852.17 138.578 851.894 137.749L848.212 145.574C848.61 146.181 849.157 146.485 849.854 146.485Z" fill="url(#paint49_linear_175_198)"/>
<path d="M850.849 166.353H853.287V167.28H846.968V166.353H849.787V156.514L847.101 158.212L846.637 157.424L849.953 155.253H850.849V166.353Z" fill="url(#paint50_linear_175_198)"/>
<path d="M850.849 186.36H853.287V187.288H846.968V186.36H849.787V176.522L847.101 178.22L846.637 177.432L849.953 175.261H850.849V186.36Z" fill="url(#paint51_linear_175_198)"/>
<path d="M849.854 195.094C851.037 195.094 851.932 195.625 852.54 196.687C853.159 197.737 853.469 199.266 853.469 201.274C853.469 203.281 853.159 204.816 852.54 205.878C851.932 206.94 851.037 207.471 849.854 207.471C848.682 207.471 847.786 206.94 847.167 205.878C846.548 204.816 846.239 203.281 846.239 201.274C846.239 199.278 846.548 197.749 847.167 196.687C847.786 195.625 848.682 195.094 849.854 195.094ZM847.416 201.274C847.416 202.698 847.538 203.812 847.781 204.618L851.462 196.862C851.075 196.313 850.539 196.039 849.854 196.039C849.091 196.039 848.494 196.471 848.063 197.335C847.632 198.187 847.416 199.5 847.416 201.274ZM849.854 206.508C850.628 206.508 851.23 206.082 851.661 205.23C852.093 204.367 852.308 203.048 852.308 201.274C852.308 199.768 852.17 198.601 851.894 197.772L848.212 205.598C848.61 206.205 849.157 206.508 849.854 206.508Z" fill="url(#paint52_linear_175_198)"/>
<path d="M850.849 226.376H853.287V227.304H846.968V226.376H849.787V216.537L847.101 218.235L846.637 217.448L849.953 215.277H850.849V226.376Z" fill="url(#paint53_linear_175_198)"/>
<path d="M849.854 235.109C851.037 235.109 851.932 235.641 852.54 236.703C853.159 237.753 853.469 239.282 853.469 241.289C853.469 243.297 853.159 244.832 852.54 245.894C851.932 246.956 851.037 247.487 849.854 247.487C848.682 247.487 847.786 246.956 847.167 245.894C846.548 244.832 846.239 243.297 846.239 241.289C846.239 239.294 846.548 237.765 847.167 236.703C847.786 235.641 848.682 235.109 849.854 235.109ZM847.416 241.289C847.416 242.713 847.538 243.828 847.781 244.633L851.462 236.878C851.075 236.329 850.539 236.055 849.854 236.055C849.091 236.055 848.494 236.487 848.063 237.35C847.632 238.202 847.416 239.515 847.416 241.289ZM849.854 246.524C850.628 246.524 851.23 246.098 851.661 245.246C852.093 244.382 852.308 243.063 852.308 241.289C852.308 239.784 852.17 238.617 851.894 237.788L848.212 245.614C848.61 246.22 849.157 246.524 849.854 246.524Z" fill="url(#paint54_linear_175_198)"/>
<path d="M849.854 255.117C851.037 255.117 851.932 255.648 852.54 256.71C853.159 257.761 853.469 259.29 853.469 261.297C853.469 263.305 853.159 264.839 852.54 265.902C851.932 266.964 851.037 267.495 849.854 267.495C848.682 267.495 847.786 266.964 847.167 265.902C846.548 264.839 846.239 263.305 846.239 261.297C846.239 259.301 846.548 257.773 847.167 256.71C847.786 255.648 848.682 255.117 849.854 255.117ZM847.416 261.297C847.416 262.721 847.538 263.836 847.781 264.641L851.462 256.886C851.075 256.337 850.539 256.063 849.854 256.063C849.091 256.063 848.494 256.495 848.063 257.358C847.632 258.21 847.416 259.523 847.416 261.297ZM849.854 266.532C850.628 266.532 851.23 266.106 851.661 265.254C852.093 264.39 852.308 263.071 852.308 261.297C852.308 259.792 852.17 258.625 851.894 257.796L848.212 265.621C848.61 266.228 849.157 266.532 849.854 266.532Z" fill="url(#paint55_linear_175_198)"/>
<path d="M850.849 286.4H853.287V287.327H846.968V286.4H849.787V276.561L847.101 278.259L846.637 277.471L849.953 275.3H850.849V286.4Z" fill="url(#paint56_linear_175_198)"/>
<path d="M849.854 295.133C851.037 295.133 851.932 295.664 852.54 296.726C853.159 297.777 853.469 299.305 853.469 301.313C853.469 303.32 853.159 304.855 852.54 305.917C851.932 306.979 851.037 307.51 849.854 307.51C848.682 307.51 847.786 306.979 847.167 305.917C846.548 304.855 846.239 303.32 846.239 301.313C846.239 299.317 846.548 297.788 847.167 296.726C847.786 295.664 848.682 295.133 849.854 295.133ZM847.416 301.313C847.416 302.737 847.538 303.851 847.781 304.657L851.462 296.901C851.075 296.353 850.539 296.078 849.854 296.078C849.091 296.078 848.494 296.51 848.063 297.374C847.632 298.226 847.416 299.539 847.416 301.313ZM849.854 306.547C850.628 306.547 851.23 306.121 851.661 305.269C852.093 304.406 852.308 303.087 852.308 301.313C852.308 299.807 852.17 298.64 851.894 297.812L848.212 305.637C848.61 306.244 849.157 306.547 849.854 306.547Z" fill="url(#paint57_linear_175_198)"/>
<path d="M850.849 326.415H853.287V327.343H846.968V326.415H849.787V316.576L847.101 318.275L846.637 317.487L849.953 315.316H850.849V326.415Z" fill="url(#paint58_linear_175_198)"/>
<path d="M850.849 346.423H853.287V347.351H846.968V346.423H849.787V336.584L847.101 338.282L846.637 337.495L849.953 335.324H850.849V346.423Z" fill="url(#paint59_linear_175_198)"/>
<path d="M880.652 135.07C881.835 135.07 882.73 135.601 883.338 136.663C883.957 137.714 884.267 139.243 884.267 141.25C884.267 143.258 883.957 144.792 883.338 145.855C882.73 146.917 881.835 147.448 880.652 147.448C879.48 147.448 878.584 146.917 877.965 145.855C877.346 144.792 877.036 143.258 877.036 141.25C877.036 139.254 877.346 137.726 877.965 136.663C878.584 135.601 879.48 135.07 880.652 135.07ZM878.214 141.25C878.214 142.674 878.336 143.789 878.579 144.594L882.26 136.839C881.873 136.29 881.337 136.016 880.652 136.016C879.889 136.016 879.292 136.448 878.861 137.311C878.429 138.163 878.214 139.476 878.214 141.25ZM880.652 146.485C881.426 146.485 882.028 146.059 882.459 145.207C882.89 144.343 883.106 143.024 883.106 141.25C883.106 139.745 882.968 138.578 882.691 137.749L879.01 145.574C879.408 146.181 879.955 146.485 880.652 146.485Z" fill="url(#paint60_linear_175_198)"/>
<path d="M881.647 166.353H884.084V167.28H877.766V166.353H880.585V156.514L877.899 158.212L877.434 157.424L880.751 155.253H881.647V166.353Z" fill="url(#paint61_linear_175_198)"/>
<path d="M880.652 175.086C881.835 175.086 882.73 175.617 883.338 176.679C883.957 177.73 884.267 179.258 884.267 181.266C884.267 183.273 883.957 184.808 883.338 185.87C882.73 186.932 881.835 187.463 880.652 187.463C879.48 187.463 878.584 186.932 877.965 185.87C877.346 184.808 877.036 183.273 877.036 181.266C877.036 179.27 877.346 177.741 877.965 176.679C878.584 175.617 879.48 175.086 880.652 175.086ZM878.214 181.266C878.214 182.69 878.336 183.804 878.579 184.61L882.26 176.854C881.873 176.306 881.337 176.031 880.652 176.031C879.889 176.031 879.292 176.463 878.861 177.327C878.429 178.179 878.214 179.492 878.214 181.266ZM880.652 186.5C881.426 186.5 882.028 186.074 882.459 185.222C882.89 184.359 883.106 183.04 883.106 181.266C883.106 179.76 882.968 178.593 882.691 177.765L879.01 185.59C879.408 186.197 879.955 186.5 880.652 186.5Z" fill="url(#paint62_linear_175_198)"/>
<path d="M880.652 195.094C881.835 195.094 882.73 195.625 883.338 196.687C883.957 197.737 884.267 199.266 884.267 201.274C884.267 203.281 883.957 204.816 883.338 205.878C882.73 206.94 881.835 207.471 880.652 207.471C879.48 207.471 878.584 206.94 877.965 205.878C877.346 204.816 877.036 203.281 877.036 201.274C877.036 199.278 877.346 197.749 877.965 196.687C878.584 195.625 879.48 195.094 880.652 195.094ZM878.214 201.274C878.214 202.698 878.336 203.812 878.579 204.618L882.26 196.862C881.873 196.313 881.337 196.039 880.652 196.039C879.889 196.039 879.292 196.471 878.861 197.335C878.429 198.187 878.214 199.5 878.214 201.274ZM880.652 206.508C881.426 206.508 882.028 206.082 882.459 205.23C882.89 204.367 883.106 203.048 883.106 201.274C883.106 199.768 882.968 198.601 882.691 197.772L879.01 205.598C879.408 206.205 879.955 206.508 880.652 206.508Z" fill="url(#paint63_linear_175_198)"/>
<path d="M881.647 226.376H884.084V227.304H877.766V226.376H880.585V216.537L877.899 218.235L877.434 217.448L880.751 215.277H881.647V226.376Z" fill="url(#paint64_linear_175_198)"/>
<path d="M880.652 235.109C881.835 235.109 882.73 235.641 883.338 236.703C883.957 237.753 884.267 239.282 884.267 241.289C884.267 243.297 883.957 244.832 883.338 245.894C882.73 246.956 881.835 247.487 880.652 247.487C879.48 247.487 878.584 246.956 877.965 245.894C877.346 244.832 877.036 243.297 877.036 241.289C877.036 239.294 877.346 237.765 877.965 236.703C878.584 235.641 879.48 235.109 880.652 235.109ZM878.214 241.289C878.214 242.713 878.336 243.828 878.579 244.633L882.26 236.878C881.873 236.329 881.337 236.055 880.652 236.055C879.889 236.055 879.292 236.487 878.861 237.35C878.429 238.202 878.214 239.515 878.214 241.289ZM880.652 246.524C881.426 246.524 882.028 246.098 882.459 245.246C882.89 244.382 883.106 243.063 883.106 241.289C883.106 239.784 882.968 238.617 882.691 237.788L879.01 245.614C879.408 246.22 879.955 246.524 880.652 246.524Z" fill="url(#paint65_linear_175_198)"/>
<path d="M881.647 266.392H884.084V267.32H877.766V266.392H880.585V256.553L877.899 258.251L877.434 257.463L880.751 255.292H881.647V266.392Z" fill="url(#paint66_linear_175_198)"/>
<path d="M880.652 275.125C881.835 275.125 882.73 275.656 883.338 276.718C883.957 277.769 884.267 279.298 884.267 281.305C884.267 283.313 883.957 284.847 883.338 285.909C882.73 286.971 881.835 287.502 880.652 287.502C879.48 287.502 878.584 286.971 877.965 285.909C877.346 284.847 877.036 283.313 877.036 281.305C877.036 279.309 877.346 277.78 877.965 276.718C878.584 275.656 879.48 275.125 880.652 275.125ZM878.214 281.305C878.214 282.729 878.336 283.844 878.579 284.649L882.26 276.893C881.873 276.345 881.337 276.071 880.652 276.071C879.889 276.071 879.292 276.502 878.861 277.366C878.429 278.218 878.214 279.531 878.214 281.305ZM880.652 286.54C881.426 286.54 882.028 286.114 882.459 285.262C882.89 284.398 883.106 283.079 883.106 281.305C883.106 279.799 882.968 278.632 882.691 277.804L879.01 285.629C879.408 286.236 879.955 286.54 880.652 286.54Z" fill="url(#paint67_linear_175_198)"/>
<path d="M880.652 295.133C881.835 295.133 882.73 295.664 883.338 296.726C883.957 297.777 884.267 299.305 884.267 301.313C884.267 303.32 883.957 304.855 883.338 305.917C882.73 306.979 881.835 307.51 880.652 307.51C879.48 307.51 878.584 306.979 877.965 305.917C877.346 304.855 877.036 303.32 877.036 301.313C877.036 299.317 877.346 297.788 877.965 296.726C878.584 295.664 879.48 295.133 880.652 295.133ZM878.214 301.313C878.214 302.737 878.336 303.851 878.579 304.657L882.26 296.901C881.873 296.353 881.337 296.078 880.652 296.078C879.889 296.078 879.292 296.51 878.861 297.374C878.429 298.226 878.214 299.539 878.214 301.313ZM880.652 306.547C881.426 306.547 882.028 306.121 882.459 305.269C882.89 304.406 883.106 303.087 883.106 301.313C883.106 299.807 882.968 298.64 882.691 297.812L879.01 305.637C879.408 306.244 879.955 306.547 880.652 306.547Z" fill="url(#paint68_linear_175_198)"/>
<path d="M881.647 326.415H884.084V327.343H877.766V326.415H880.585V316.576L877.899 318.275L877.434 317.487L880.751 315.316H881.647V326.415Z" fill="url(#paint69_linear_175_198)"/>
<path d="M880.652 335.149C881.835 335.149 882.73 335.68 883.338 336.742C883.957 337.792 884.267 339.321 884.267 341.329C884.267 343.336 883.957 344.871 883.338 345.933C882.73 346.995 881.835 347.526 880.652 347.526C879.48 347.526 878.584 346.995 877.965 345.933C877.346 344.871 877.036 343.336 877.036 341.329C877.036 339.333 877.346 337.804 877.965 336.742C878.584 335.68 879.48 335.149 880.652 335.149ZM878.214 341.329C878.214 342.752 878.336 343.867 878.579 344.672L882.26 336.917C881.873 336.368 881.337 336.094 880.652 336.094C879.889 336.094 879.292 336.526 878.861 337.39C878.429 338.242 878.214 339.555 878.214 341.329ZM880.652 346.563C881.426 346.563 882.028 346.137 882.459 345.285C882.89 344.421 883.106 343.103 883.106 341.329C883.106 339.823 882.968 338.656 882.691 337.827L879.01 345.653C879.408 346.26 879.955 346.563 880.652 346.563Z" fill="url(#paint70_linear_175_198)"/>
<path d="M881.647 366.431H884.084V367.359H877.766V366.431H880.585V356.592L877.899 358.29L877.434 357.502L880.751 355.332H881.647V366.431Z" fill="url(#paint71_linear_175_198)"/>
<path d="M881.647 386.439H884.084V387.367H877.766V386.439H880.585V376.6L877.899 378.298L877.434 377.51L880.751 375.339H881.647V386.439Z" fill="url(#paint72_linear_175_198)"/>
<path d="M834.455 155.078C835.638 155.078 836.533 155.609 837.141 156.671C837.76 157.722 838.07 159.251 838.07 161.258C838.07 163.266 837.76 164.8 837.141 165.862C836.533 166.924 835.638 167.455 834.455 167.455C833.283 167.455 832.387 166.924 831.768 165.862C831.149 164.8 830.84 163.266 830.84 161.258C830.84 159.262 831.149 157.733 831.768 156.671C832.387 155.609 833.283 155.078 834.455 155.078ZM832.017 161.258C832.017 162.682 832.139 163.797 832.382 164.602L836.063 156.846C835.676 156.298 835.14 156.024 834.455 156.024C833.692 156.024 833.095 156.455 832.664 157.319C832.233 158.171 832.017 159.484 832.017 161.258ZM834.455 166.493C835.229 166.493 835.831 166.067 836.262 165.215C836.694 164.351 836.909 163.032 836.909 161.258C836.909 159.752 836.771 158.585 836.495 157.757L832.813 165.582C833.211 166.189 833.758 166.493 834.455 166.493Z" fill="url(#paint73_linear_175_198)"/>
<path d="M834.455 175.086C835.638 175.086 836.533 175.617 837.141 176.679C837.76 177.73 838.07 179.258 838.07 181.266C838.07 183.273 837.76 184.808 837.141 185.87C836.533 186.932 835.638 187.463 834.455 187.463C833.283 187.463 832.387 186.932 831.768 185.87C831.149 184.808 830.84 183.273 830.84 181.266C830.84 179.27 831.149 177.741 831.768 176.679C832.387 175.617 833.283 175.086 834.455 175.086ZM832.017 181.266C832.017 182.69 832.139 183.804 832.382 184.61L836.063 176.854C835.676 176.306 835.14 176.031 834.455 176.031C833.692 176.031 833.095 176.463 832.664 177.327C832.233 178.179 832.017 179.492 832.017 181.266ZM834.455 186.5C835.229 186.5 835.831 186.074 836.262 185.222C836.694 184.359 836.909 183.04 836.909 181.266C836.909 179.76 836.771 178.593 836.495 177.765L832.813 185.59C833.211 186.197 833.758 186.5 834.455 186.5Z" fill="url(#paint74_linear_175_198)"/>
<path d="M835.45 206.368H837.888V207.296H831.569V206.368H834.388V196.529L831.702 198.228L831.238 197.44L834.554 195.269H835.45V206.368Z" fill="url(#paint75_linear_175_198)"/>
<path d="M834.455 215.102C835.638 215.102 836.533 215.633 837.141 216.695C837.76 217.745 838.07 219.274 838.07 221.282C838.07 223.289 837.76 224.824 837.141 225.886C836.533 226.948 835.638 227.479 834.455 227.479C833.283 227.479 832.387 226.948 831.768 225.886C831.149 224.824 830.84 223.289 830.84 221.282C830.84 219.286 831.149 217.757 831.768 216.695C832.387 215.633 833.283 215.102 834.455 215.102ZM832.017 221.282C832.017 222.705 832.139 223.82 832.382 224.625L836.063 216.87C835.676 216.321 835.14 216.047 834.455 216.047C833.692 216.047 833.095 216.479 832.664 217.343C832.233 218.195 832.017 219.508 832.017 221.282ZM834.455 226.516C835.229 226.516 835.831 226.09 836.262 225.238C836.694 224.374 836.909 223.056 836.909 221.282C836.909 219.776 836.771 218.609 836.495 217.78L832.813 225.606C833.211 226.213 833.758 226.516 834.455 226.516Z" fill="url(#paint76_linear_175_198)"/>
<path d="M835.45 246.384H837.888V247.312H831.569V246.384H834.388V236.545L831.702 238.243L831.238 237.455L834.554 235.285H835.45V246.384Z" fill="url(#paint77_linear_175_198)"/>
<path d="M835.45 266.392H837.888V267.32H831.569V266.392H834.388V256.553L831.702 258.251L831.238 257.463L834.554 255.292H835.45V266.392Z" fill="url(#paint78_linear_175_198)"/>
<path d="M866.248 126.337H868.686V127.265H862.367V126.337H865.186V116.498L862.5 118.196L862.036 117.408L865.352 115.238H866.248V126.337Z" fill="url(#paint79_linear_175_198)"/>
<path d="M865.253 135.07C866.436 135.07 867.331 135.601 867.939 136.663C868.558 137.714 868.868 139.243 868.868 141.25C868.868 143.258 868.558 144.792 867.939 145.855C867.331 146.917 866.436 147.448 865.253 147.448C864.081 147.448 863.185 146.917 862.566 145.855C861.947 144.792 861.638 143.258 861.638 141.25C861.638 139.254 861.947 137.726 862.566 136.663C863.185 135.601 864.081 135.07 865.253 135.07ZM862.815 141.25C862.815 142.674 862.937 143.789 863.18 144.594L866.861 136.839C866.474 136.29 865.938 136.016 865.253 136.016C864.49 136.016 863.893 136.448 863.462 137.311C863.031 138.163 862.815 139.476 862.815 141.25ZM865.253 146.485C866.027 146.485 866.629 146.059 867.06 145.207C867.491 144.343 867.707 143.024 867.707 141.25C867.707 139.745 867.569 138.578 867.292 137.749L863.611 145.574C864.009 146.181 864.556 146.485 865.253 146.485Z" fill="url(#paint80_linear_175_198)"/>
<path d="M866.248 166.353H868.686V167.28H862.367V166.353H865.186V156.514L862.5 158.212L862.036 157.424L865.352 155.253H866.248V166.353Z" fill="url(#paint81_linear_175_198)"/>
<path d="M866.248 186.36H868.686V187.288H862.367V186.36H865.186V176.522L862.5 178.22L862.036 177.432L865.352 175.261H866.248V186.36Z" fill="url(#paint82_linear_175_198)"/>
<path d="M865.253 195.094C866.436 195.094 867.331 195.625 867.939 196.687C868.558 197.737 868.868 199.266 868.868 201.274C868.868 203.281 868.558 204.816 867.939 205.878C867.331 206.94 866.436 207.471 865.253 207.471C864.081 207.471 863.185 206.94 862.566 205.878C861.947 204.816 861.638 203.281 861.638 201.274C861.638 199.278 861.947 197.749 862.566 196.687C863.185 195.625 864.081 195.094 865.253 195.094ZM862.815 201.274C862.815 202.698 862.937 203.812 863.18 204.618L866.861 196.862C866.474 196.313 865.938 196.039 865.253 196.039C864.49 196.039 863.893 196.471 863.462 197.335C863.031 198.187 862.815 199.5 862.815 201.274ZM865.253 206.508C866.027 206.508 866.629 206.082 867.06 205.23C867.491 204.367 867.707 203.048 867.707 201.274C867.707 199.768 867.569 198.601 867.292 197.772L863.611 205.598C864.009 206.205 864.556 206.508 865.253 206.508Z" fill="url(#paint83_linear_175_198)"/>
<path d="M866.248 226.376H868.686V227.304H862.367V226.376H865.186V216.537L862.5 218.235L862.036 217.448L865.352 215.277H866.248V226.376Z" fill="url(#paint84_linear_175_198)"/>
<path d="M866.248 246.384H868.686V247.312H862.367V246.384H865.186V236.545L862.5 238.243L862.036 237.455L865.352 235.285H866.248V246.384Z" fill="url(#paint85_linear_175_198)"/>
<path d="M865.253 255.117C866.436 255.117 867.331 255.648 867.939 256.71C868.558 257.761 868.868 259.29 868.868 261.297C868.868 263.305 868.558 264.839 867.939 265.902C867.331 266.964 866.436 267.495 865.253 267.495C864.081 267.495 863.185 266.964 862.566 265.902C861.947 264.839 861.638 263.305 861.638 261.297C861.638 259.301 861.947 257.773 862.566 256.71C863.185 255.648 864.081 255.117 865.253 255.117ZM862.815 261.297C862.815 262.721 862.937 263.836 863.18 264.641L866.861 256.886C866.474 256.337 865.938 256.063 865.253 256.063C864.49 256.063 863.893 256.495 863.462 257.358C863.031 258.21 862.815 259.523 862.815 261.297ZM865.253 266.532C866.027 266.532 866.629 266.106 867.06 265.254C867.491 264.39 867.707 263.071 867.707 261.297C867.707 259.792 867.569 258.625 867.292 257.796L863.611 265.621C864.009 266.228 864.556 266.532 865.253 266.532Z" fill="url(#paint86_linear_175_198)"/>
<path d="M866.248 286.4H868.686V287.327H862.367V286.4H865.186V276.561L862.5 278.259L862.036 277.471L865.352 275.3H866.248V286.4Z" fill="url(#paint87_linear_175_198)"/>
<path d="M865.253 295.133C866.436 295.133 867.331 295.664 867.939 296.726C868.558 297.777 868.868 299.305 868.868 301.313C868.868 303.32 868.558 304.855 867.939 305.917C867.331 306.979 866.436 307.51 865.253 307.51C864.081 307.51 863.185 306.979 862.566 305.917C861.947 304.855 861.638 303.32 861.638 301.313C861.638 299.317 861.947 297.788 862.566 296.726C863.185 295.664 864.081 295.133 865.253 295.133ZM862.815 301.313C862.815 302.737 862.937 303.851 863.18 304.657L866.861 296.901C866.474 296.353 865.938 296.078 865.253 296.078C864.49 296.078 863.893 296.51 863.462 297.374C863.031 298.226 862.815 299.539 862.815 301.313ZM865.253 306.547C866.027 306.547 866.629 306.121 867.06 305.269C867.491 304.406 867.707 303.087 867.707 301.313C867.707 299.807 867.569 298.64 867.292 297.812L863.611 305.637C864.009 306.244 864.556 306.547 865.253 306.547Z" fill="url(#paint88_linear_175_198)"/>
<path d="M896.051 115.062C897.234 115.062 898.129 115.594 898.737 116.656C899.356 117.706 899.666 119.235 899.666 121.242C899.666 123.25 899.356 124.785 898.737 125.847C898.129 126.909 897.234 127.44 896.051 127.44C894.879 127.44 893.983 126.909 893.364 125.847C892.745 124.785 892.435 123.25 892.435 121.242C892.435 119.247 892.745 117.718 893.364 116.656C893.983 115.594 894.879 115.062 896.051 115.062ZM893.613 121.242C893.613 122.666 893.734 123.781 893.978 124.586L897.659 116.831C897.272 116.282 896.736 116.008 896.051 116.008C895.288 116.008 894.691 116.44 894.26 117.303C893.828 118.155 893.613 119.468 893.613 121.242ZM896.051 126.477C896.825 126.477 897.427 126.051 897.858 125.199C898.289 124.335 898.505 123.016 898.505 121.242C898.505 119.737 898.367 118.57 898.09 117.741L894.409 125.567C894.807 126.174 895.354 126.477 896.051 126.477Z" fill="url(#paint89_linear_175_198)"/>
<path d="M897.046 146.345H899.483V147.273H893.165V146.345H895.984V136.506L893.298 138.204L892.833 137.416L896.15 135.245H897.046V146.345Z" fill="url(#paint90_linear_175_198)"/>
<path d="M897.046 166.353H899.483V167.28H893.165V166.353H895.984V156.514L893.298 158.212L892.833 157.424L896.15 155.253H897.046V166.353Z" fill="url(#paint91_linear_175_198)"/>
<path d="M896.051 175.086C897.234 175.086 898.129 175.617 898.737 176.679C899.356 177.73 899.666 179.258 899.666 181.266C899.666 183.273 899.356 184.808 898.737 185.87C898.129 186.932 897.234 187.463 896.051 187.463C894.879 187.463 893.983 186.932 893.364 185.87C892.745 184.808 892.435 183.273 892.435 181.266C892.435 179.27 892.745 177.741 893.364 176.679C893.983 175.617 894.879 175.086 896.051 175.086ZM893.613 181.266C893.613 182.69 893.734 183.804 893.978 184.61L897.659 176.854C897.272 176.306 896.736 176.031 896.051 176.031C895.288 176.031 894.691 176.463 894.26 177.327C893.828 178.179 893.613 179.492 893.613 181.266ZM896.051 186.5C896.825 186.5 897.427 186.074 897.858 185.222C898.289 184.359 898.505 183.04 898.505 181.266C898.505 179.76 898.367 178.593 898.09 177.765L894.409 185.59C894.807 186.197 895.354 186.5 896.051 186.5Z" fill="url(#paint92_linear_175_198)"/>
<path d="M896.051 195.094C897.234 195.094 898.129 195.625 898.737 196.687C899.356 197.737 899.666 199.266 899.666 201.274C899.666 203.281 899.356 204.816 898.737 205.878C898.129 206.94 897.234 207.471 896.051 207.471C894.879 207.471 893.983 206.94 893.364 205.878C892.745 204.816 892.435 203.281 892.435 201.274C892.435 199.278 892.745 197.749 893.364 196.687C893.983 195.625 894.879 195.094 896.051 195.094ZM893.613 201.274C893.613 202.698 893.734 203.812 893.978 204.618L897.659 196.862C897.272 196.313 896.736 196.039 896.051 196.039C895.288 196.039 894.691 196.471 894.26 197.335C893.828 198.187 893.613 199.5 893.613 201.274ZM896.051 206.508C896.825 206.508 897.427 206.082 897.858 205.23C898.289 204.367 898.505 203.048 898.505 201.274C898.505 199.768 898.367 198.601 898.09 197.772L894.409 205.598C894.807 206.205 895.354 206.508 896.051 206.508Z" fill="url(#paint93_linear_175_198)"/>
</g>
<defs>
<linearGradient id="paint0_linear_175_198" x1="130.553" y1="358.399" x2="130.553" y2="631.733" gradientUnits="userSpaceOnUse">
<stop stop-color="#F7DD43"/>
<stop offset="1" stop-color="#F7DD43" stop-opacity="0"/>
</linearGradient>
<linearGradient id="paint1_linear_175_198" x1="130.553" y1="358.399" x2="130.553" y2="631.733" gradientUnits="userSpaceOnUse">
<stop stop-color="#F7DD43"/>
<stop offset="1" stop-color="#F7DD43" stop-opacity="0"/>
</linearGradient>
<linearGradient id="paint2_linear_175_198" x1="130.553" y1="358.399" x2="130.553" y2="631.733" gradientUnits="userSpaceOnUse">
<stop stop-color="#F7DD43"/>
<stop offset="1" stop-color="#F7DD43" stop-opacity="0"/>
</linearGradient>
<linearGradient id="paint3_linear_175_198" x1="130.553" y1="358.399" x2="130.553" y2="631.733" gradientUnits="userSpaceOnUse">
<stop stop-color="#F7DD43"/>
<stop offset="1" stop-color="#F7DD43" stop-opacity="0"/>
</linearGradient>
<linearGradient id="paint4_linear_175_198" x1="130.553" y1="358.399" x2="130.553" y2="631.733" gradientUnits="userSpaceOnUse">
<stop stop-color="#F7DD43"/>
<stop offset="1" stop-color="#F7DD43" stop-opacity="0"/>
</linearGradient>
<linearGradient id="paint5_linear_175_198" x1="130.553" y1="358.399" x2="130.553" y2="631.733" gradientUnits="userSpaceOnUse">
<stop stop-color="#F7DD43"/>
<stop offset="1" stop-color="#F7DD43" stop-opacity="0"/>
</linearGradient>
<linearGradient id="paint6_linear_175_198" x1="130.553" y1="358.399" x2="130.553" y2="631.733" gradientUnits="userSpaceOnUse">
<stop stop-color="#F7DD43"/>
<stop offset="1" stop-color="#F7DD43" stop-opacity="0"/>
</linearGradient>
<linearGradient id="paint7_linear_175_198" x1="130.553" y1="358.399" x2="130.553" y2="631.733" gradientUnits="userSpaceOnUse">
<stop stop-color="#F7DD43"/>
<stop offset="1" stop-color="#F7DD43" stop-opacity="0"/>
</linearGradient>
<linearGradient id="paint8_linear_175_198" x1="130.553" y1="358.399" x2="130.553" y2="631.733" gradientUnits="userSpaceOnUse">
<stop stop-color="#F7DD43"/>
<stop offset="1" stop-color="#F7DD43" stop-opacity="0"/>
</linearGradient>
<linearGradient id="paint9_linear_175_198" x1="130.553" y1="358.399" x2="130.553" y2="631.733" gradientUnits="userSpaceOnUse">
<stop stop-color="#F7DD43"/>
<stop offset="1" stop-color="#F7DD43" stop-opacity="0"/>
</linearGradient>
<linearGradient id="paint10_linear_175_198" x1="130.553" y1="358.399" x2="130.553" y2="631.733" gradientUnits="userSpaceOnUse">
<stop stop-color="#F7DD43"/>
<stop offset="1" stop-color="#F7DD43" stop-opacity="0"/>
</linearGradient>
<linearGradient id="paint11_linear_175_198" x1="130.553" y1="358.399" x2="130.553" y2="631.733" gradientUnits="userSpaceOnUse">
<stop stop-color="#F7DD43"/>
<stop offset="1" stop-color="#F7DD43" stop-opacity="0"/>
</linearGradient>
<linearGradient id="paint12_linear_175_198" x1="130.553" y1="358.399" x2="130.553" y2="631.733" gradientUnits="userSpaceOnUse">
<stop stop-color="#F7DD43"/>
<stop offset="1" stop-color="#F7DD43" stop-opacity="0"/>
</linearGradient>
<linearGradient id="paint13_linear_175_198" x1="130.553" y1="358.399" x2="130.553" y2="631.733" gradientUnits="userSpaceOnUse">
<stop stop-color="#F7DD43"/>
<stop offset="1" stop-color="#F7DD43" stop-opacity="0"/>
</linearGradient>
<linearGradient id="paint14_linear_175_198" x1="130.553" y1="358.399" x2="130.553" y2="631.733" gradientUnits="userSpaceOnUse">
<stop stop-color="#F7DD43"/>
<stop offset="1" stop-color="#F7DD43" stop-opacity="0"/>
</linearGradient>
<linearGradient id="paint15_linear_175_198" x1="130.553" y1="358.399" x2="130.553" y2="631.733" gradientUnits="userSpaceOnUse">
<stop stop-color="#F7DD43"/>
<stop offset="1" stop-color="#F7DD43" stop-opacity="0"/>
</linearGradient>
<linearGradient id="paint16_linear_175_198" x1="130.553" y1="358.399" x2="130.553" y2="631.733" gradientUnits="userSpaceOnUse">
<stop stop-color="#F7DD43"/>
<stop offset="1" stop-color="#F7DD43" stop-opacity="0"/>
</linearGradient>
<linearGradient id="paint17_linear_175_198" x1="130.553" y1="358.399" x2="130.553" y2="631.733" gradientUnits="userSpaceOnUse">
<stop stop-color="#F7DD43"/>
<stop offset="1" stop-color="#F7DD43" stop-opacity="0"/>
</linearGradient>
<linearGradient id="paint18_linear_175_198" x1="130.553" y1="358.399" x2="130.553" y2="631.733" gradientUnits="userSpaceOnUse">
<stop stop-color="#F7DD43"/>
<stop offset="1" stop-color="#F7DD43" stop-opacity="0"/>
</linearGradient>
<linearGradient id="paint19_linear_175_198" x1="130.553" y1="358.399" x2="130.553" y2="631.733" gradientUnits="userSpaceOnUse">
<stop stop-color="#F7DD43"/>
<stop offset="1" stop-color="#F7DD43" stop-opacity="0"/>
</linearGradient>
<linearGradient id="paint20_linear_175_198" x1="130.553" y1="358.399" x2="130.553" y2="631.733" gradientUnits="userSpaceOnUse">
<stop stop-color="#F7DD43"/>
<stop offset="1" stop-color="#F7DD43" stop-opacity="0"/>
</linearGradient>
<linearGradient id="paint21_linear_175_198" x1="130.553" y1="358.399" x2="130.553" y2="631.733" gradientUnits="userSpaceOnUse">
<stop stop-color="#F7DD43"/>
<stop offset="1" stop-color="#F7DD43" stop-opacity="0"/>
</linearGradient>
<linearGradient id="paint22_linear_175_198" x1="130.553" y1="358.399" x2="130.553" y2="631.733" gradientUnits="userSpaceOnUse">
<stop stop-color="#F7DD43"/>
<stop offset="1" stop-color="#F7DD43" stop-opacity="0"/>
</linearGradient>
<linearGradient id="paint23_linear_175_198" x1="130.553" y1="358.399" x2="130.553" y2="631.733" gradientUnits="userSpaceOnUse">
<stop stop-color="#F7DD43"/>
<stop offset="1" stop-color="#F7DD43" stop-opacity="0"/>
</linearGradient>
<linearGradient id="paint24_linear_175_198" x1="130.553" y1="358.399" x2="130.553" y2="631.733" gradientUnits="userSpaceOnUse">
<stop stop-color="#F7DD43"/>
<stop offset="1" stop-color="#F7DD43" stop-opacity="0"/>
</linearGradient>
<linearGradient id="paint25_linear_175_198" x1="130.553" y1="358.399" x2="130.553" y2="631.733" gradientUnits="userSpaceOnUse">
<stop stop-color="#F7DD43"/>
<stop offset="1" stop-color="#F7DD43" stop-opacity="0"/>
</linearGradient>
<linearGradient id="paint26_linear_175_198" x1="130.553" y1="358.399" x2="130.553" y2="631.733" gradientUnits="userSpaceOnUse">
<stop stop-color="#F7DD43"/>
<stop offset="1" stop-color="#F7DD43" stop-opacity="0"/>
</linearGradient>
<linearGradient id="paint27_linear_175_198" x1="130.553" y1="358.399" x2="130.553" y2="631.733" gradientUnits="userSpaceOnUse">
<stop stop-color="#F7DD43"/>
<stop offset="1" stop-color="#F7DD43" stop-opacity="0"/>
</linearGradient>
<linearGradient id="paint28_linear_175_198" x1="130.553" y1="358.399" x2="130.553" y2="631.733" gradientUnits="userSpaceOnUse">
<stop stop-color="#F7DD43"/>
<stop offset="1" stop-color="#F7DD43" stop-opacity="0"/>
</linearGradient>
<linearGradient id="paint29_linear_175_198" x1="130.553" y1="358.399" x2="130.553" y2="631.733" gradientUnits="userSpaceOnUse">
<stop stop-color="#F7DD43"/>
<stop offset="1" stop-color="#F7DD43" stop-opacity="0"/>
</linearGradient>
<linearGradient id="paint30_linear_175_198" x1="130.553" y1="358.399" x2="130.553" y2="631.733" gradientUnits="userSpaceOnUse">
<stop stop-color="#F7DD43"/>
<stop offset="1" stop-color="#F7DD43" stop-opacity="0"/>
</linearGradient>
<linearGradient id="paint31_linear_175_198" x1="130.553" y1="358.399" x2="130.553" y2="631.733" gradientUnits="userSpaceOnUse">
<stop stop-color="#F7DD43"/>
<stop offset="1" stop-color="#F7DD43" stop-opacity="0"/>
</linearGradient>
<linearGradient id="paint32_linear_175_198" x1="130.553" y1="358.399" x2="130.553" y2="631.733" gradientUnits="userSpaceOnUse">
<stop stop-color="#F7DD43"/>
<stop offset="1" stop-color="#F7DD43" stop-opacity="0"/>
</linearGradient>
<linearGradient id="paint33_linear_175_198" x1="130.553" y1="358.399" x2="130.553" y2="631.733" gradientUnits="userSpaceOnUse">
<stop stop-color="#F7DD43"/>
<stop offset="1" stop-color="#F7DD43" stop-opacity="0"/>
</linearGradient>
<linearGradient id="paint34_linear_175_198" x1="130.553" y1="358.399" x2="130.553" y2="631.733" gradientUnits="userSpaceOnUse">
<stop stop-color="#F7DD43"/>
<stop offset="1" stop-color="#F7DD43" stop-opacity="0"/>
</linearGradient>
<linearGradient id="paint35_linear_175_198" x1="130.553" y1="358.399" x2="130.553" y2="631.733" gradientUnits="userSpaceOnUse">
<stop stop-color="#F7DD43"/>
<stop offset="1" stop-color="#F7DD43" stop-opacity="0"/>
</linearGradient>
<linearGradient id="paint36_linear_175_198" x1="130.553" y1="358.399" x2="130.553" y2="631.733" gradientUnits="userSpaceOnUse">
<stop stop-color="#F7DD43"/>
<stop offset="1" stop-color="#F7DD43" stop-opacity="0"/>
</linearGradient>
<linearGradient id="paint37_linear_175_198" x1="130.553" y1="358.399" x2="130.553" y2="631.733" gradientUnits="userSpaceOnUse">
<stop stop-color="#F7DD43"/>
<stop offset="1" stop-color="#F7DD43" stop-opacity="0"/>
</linearGradient>
<linearGradient id="paint38_linear_175_198" x1="130.553" y1="358.399" x2="130.553" y2="631.733" gradientUnits="userSpaceOnUse">
<stop stop-color="#F7DD43"/>
<stop offset="1" stop-color="#F7DD43" stop-opacity="0"/>
</linearGradient>
<linearGradient id="paint39_linear_175_198" x1="130.553" y1="358.399" x2="130.553" y2="631.733" gradientUnits="userSpaceOnUse">
<stop stop-color="#F7DD43"/>
<stop offset="1" stop-color="#F7DD43" stop-opacity="0"/>
</linearGradient>
<linearGradient id="paint40_linear_175_198" x1="130.553" y1="358.399" x2="130.553" y2="631.733" gradientUnits="userSpaceOnUse">
<stop stop-color="#F7DD43"/>
<stop offset="1" stop-color="#F7DD43" stop-opacity="0"/>
</linearGradient>
<linearGradient id="paint41_linear_175_198" x1="130.553" y1="358.399" x2="130.553" y2="631.733" gradientUnits="userSpaceOnUse">
<stop stop-color="#F7DD43"/>
<stop offset="1" stop-color="#F7DD43" stop-opacity="0"/>
</linearGradient>
<linearGradient id="paint42_linear_175_198" x1="130.553" y1="358.399" x2="130.553" y2="631.733" gradientUnits="userSpaceOnUse">
<stop stop-color="#F7DD43"/>
<stop offset="1" stop-color="#F7DD43" stop-opacity="0"/>
</linearGradient>
<linearGradient id="paint43_linear_175_198" x1="130.553" y1="358.399" x2="130.553" y2="631.733" gradientUnits="userSpaceOnUse">
<stop stop-color="#F7DD43"/>
<stop offset="1" stop-color="#F7DD43" stop-opacity="0"/>
</linearGradient>
<linearGradient id="paint44_linear_175_198" x1="130.553" y1="358.399" x2="130.553" y2="631.733" gradientUnits="userSpaceOnUse">
<stop stop-color="#F7DD43"/>
<stop offset="1" stop-color="#F7DD43" stop-opacity="0"/>
</linearGradient>
<linearGradient id="paint45_linear_175_198" x1="130.553" y1="358.399" x2="130.553" y2="631.733" gradientUnits="userSpaceOnUse">
<stop stop-color="#F7DD43"/>
<stop offset="1" stop-color="#F7DD43" stop-opacity="0"/>
</linearGradient>
<linearGradient id="paint46_linear_175_198" x1="130.553" y1="358.399" x2="130.553" y2="631.733" gradientUnits="userSpaceOnUse">
<stop stop-color="#F7DD43"/>
<stop offset="1" stop-color="#F7DD43" stop-opacity="0"/>
</linearGradient>
<linearGradient id="paint47_linear_175_198" x1="865.253" y1="95.0547" x2="865.253" y2="357.361" gradientUnits="userSpaceOnUse">
<stop stop-color="#F7DD43"/>
<stop offset="1" stop-color="#F7DD43" stop-opacity="0"/>
</linearGradient>
<linearGradient id="paint48_linear_175_198" x1="865.253" y1="95.0547" x2="865.253" y2="357.361" gradientUnits="userSpaceOnUse">
<stop stop-color="#F7DD43"/>
<stop offset="1" stop-color="#F7DD43" stop-opacity="0"/>
</linearGradient>
<linearGradient id="paint49_linear_175_198" x1="865.253" y1="95.0547" x2="865.253" y2="357.361" gradientUnits="userSpaceOnUse">
<stop stop-color="#F7DD43"/>
<stop offset="1" stop-color="#F7DD43" stop-opacity="0"/>
</linearGradient>
<linearGradient id="paint50_linear_175_198" x1="865.253" y1="95.0547" x2="865.253" y2="357.361" gradientUnits="userSpaceOnUse">
<stop stop-color="#F7DD43"/>
<stop offset="1" stop-color="#F7DD43" stop-opacity="0"/>
</linearGradient>
<linearGradient id="paint51_linear_175_198" x1="865.253" y1="95.0547" x2="865.253" y2="357.361" gradientUnits="userSpaceOnUse">
<stop stop-color="#F7DD43"/>
<stop offset="1" stop-color="#F7DD43" stop-opacity="0"/>
</linearGradient>
<linearGradient id="paint52_linear_175_198" x1="865.253" y1="95.0547" x2="865.253" y2="357.361" gradientUnits="userSpaceOnUse">
<stop stop-color="#F7DD43"/>
<stop offset="1" stop-color="#F7DD43" stop-opacity="0"/>
</linearGradient>
<linearGradient id="paint53_linear_175_198" x1="865.253" y1="95.0547" x2="865.253" y2="357.361" gradientUnits="userSpaceOnUse">
<stop stop-color="#F7DD43"/>
<stop offset="1" stop-color="#F7DD43" stop-opacity="0"/>
</linearGradient>
<linearGradient id="paint54_linear_175_198" x1="865.253" y1="95.0547" x2="865.253" y2="357.361" gradientUnits="userSpaceOnUse">
<stop stop-color="#F7DD43"/>
<stop offset="1" stop-color="#F7DD43" stop-opacity="0"/>
</linearGradient>
<linearGradient id="paint55_linear_175_198" x1="865.253" y1="95.0547" x2="865.253" y2="357.361" gradientUnits="userSpaceOnUse">
<stop stop-color="#F7DD43"/>
<stop offset="1" stop-color="#F7DD43" stop-opacity="0"/>
</linearGradient>
<linearGradient id="paint56_linear_175_198" x1="865.253" y1="95.0547" x2="865.253" y2="357.361" gradientUnits="userSpaceOnUse">
<stop stop-color="#F7DD43"/>
<stop offset="1" stop-color="#F7DD43" stop-opacity="0"/>
</linearGradient>
<linearGradient id="paint57_linear_175_198" x1="865.253" y1="95.0547" x2="865.253" y2="357.361" gradientUnits="userSpaceOnUse">
<stop stop-color="#F7DD43"/>
<stop offset="1" stop-color="#F7DD43" stop-opacity="0"/>
</linearGradient>
<linearGradient id="paint58_linear_175_198" x1="865.253" y1="95.0547" x2="865.253" y2="357.361" gradientUnits="userSpaceOnUse">
<stop stop-color="#F7DD43"/>
<stop offset="1" stop-color="#F7DD43" stop-opacity="0"/>
</linearGradient>
<linearGradient id="paint59_linear_175_198" x1="865.253" y1="95.0547" x2="865.253" y2="357.361" gradientUnits="userSpaceOnUse">
<stop stop-color="#F7DD43"/>
<stop offset="1" stop-color="#F7DD43" stop-opacity="0"/>
</linearGradient>
<linearGradient id="paint60_linear_175_198" x1="865.253" y1="95.0547" x2="865.253" y2="357.361" gradientUnits="userSpaceOnUse">
<stop stop-color="#F7DD43"/>
<stop offset="1" stop-color="#F7DD43" stop-opacity="0"/>
</linearGradient>
<linearGradient id="paint61_linear_175_198" x1="865.253" y1="95.0547" x2="865.253" y2="357.361" gradientUnits="userSpaceOnUse">
<stop stop-color="#F7DD43"/>
<stop offset="1" stop-color="#F7DD43" stop-opacity="0"/>
</linearGradient>
<linearGradient id="paint62_linear_175_198" x1="865.253" y1="95.0547" x2="865.253" y2="357.361" gradientUnits="userSpaceOnUse">
<stop stop-color="#F7DD43"/>
<stop offset="1" stop-color="#F7DD43" stop-opacity="0"/>
</linearGradient>
<linearGradient id="paint63_linear_175_198" x1="865.253" y1="95.0547" x2="865.253" y2="357.361" gradientUnits="userSpaceOnUse">
<stop stop-color="#F7DD43"/>
<stop offset="1" stop-color="#F7DD43" stop-opacity="0"/>
</linearGradient>
<linearGradient id="paint64_linear_175_198" x1="865.253" y1="95.0547" x2="865.253" y2="357.361" gradientUnits="userSpaceOnUse">
<stop stop-color="#F7DD43"/>
<stop offset="1" stop-color="#F7DD43" stop-opacity="0"/>
</linearGradient>
<linearGradient id="paint65_linear_175_198" x1="865.253" y1="95.0547" x2="865.253" y2="357.361" gradientUnits="userSpaceOnUse">
<stop stop-color="#F7DD43"/>
<stop offset="1" stop-color="#F7DD43" stop-opacity="0"/>
</linearGradient>
<linearGradient id="paint66_linear_175_198" x1="865.253" y1="95.0547" x2="865.253" y2="357.361" gradientUnits="userSpaceOnUse">
<stop stop-color="#F7DD43"/>
<stop offset="1" stop-color="#F7DD43" stop-opacity="0"/>
</linearGradient>
<linearGradient id="paint67_linear_175_198" x1="865.253" y1="95.0547" x2="865.253" y2="357.361" gradientUnits="userSpaceOnUse">
<stop stop-color="#F7DD43"/>
<stop offset="1" stop-color="#F7DD43" stop-opacity="0"/>
</linearGradient>
<linearGradient id="paint68_linear_175_198" x1="865.253" y1="95.0547" x2="865.253" y2="357.361" gradientUnits="userSpaceOnUse">
<stop stop-color="#F7DD43"/>
<stop offset="1" stop-color="#F7DD43" stop-opacity="0"/>
</linearGradient>
<linearGradient id="paint69_linear_175_198" x1="865.253" y1="95.0547" x2="865.253" y2="357.361" gradientUnits="userSpaceOnUse">
<stop stop-color="#F7DD43"/>
<stop offset="1" stop-color="#F7DD43" stop-opacity="0"/>
</linearGradient>
<linearGradient id="paint70_linear_175_198" x1="865.253" y1="95.0547" x2="865.253" y2="357.361" gradientUnits="userSpaceOnUse">
<stop stop-color="#F7DD43"/>
<stop offset="1" stop-color="#F7DD43" stop-opacity="0"/>
</linearGradient>
<linearGradient id="paint71_linear_175_198" x1="865.253" y1="95.0547" x2="865.253" y2="357.361" gradientUnits="userSpaceOnUse">
<stop stop-color="#F7DD43"/>
<stop offset="1" stop-color="#F7DD43" stop-opacity="0"/>
</linearGradient>
<linearGradient id="paint72_linear_175_198" x1="865.253" y1="95.0547" x2="865.253" y2="357.361" gradientUnits="userSpaceOnUse">
<stop stop-color="#F7DD43"/>
<stop offset="1" stop-color="#F7DD43" stop-opacity="0"/>
</linearGradient>
<linearGradient id="paint73_linear_175_198" x1="865.253" y1="95.0547" x2="865.253" y2="357.361" gradientUnits="userSpaceOnUse">
<stop stop-color="#F7DD43"/>
<stop offset="1" stop-color="#F7DD43" stop-opacity="0"/>
</linearGradient>
<linearGradient id="paint74_linear_175_198" x1="865.253" y1="95.0547" x2="865.253" y2="357.361" gradientUnits="userSpaceOnUse">
<stop stop-color="#F7DD43"/>
<stop offset="1" stop-color="#F7DD43" stop-opacity="0"/>
</linearGradient>
<linearGradient id="paint75_linear_175_198" x1="865.253" y1="95.0547" x2="865.253" y2="357.361" gradientUnits="userSpaceOnUse">
<stop stop-color="#F7DD43"/>
<stop offset="1" stop-color="#F7DD43" stop-opacity="0"/>
</linearGradient>
<linearGradient id="paint76_linear_175_198" x1="865.253" y1="95.0547" x2="865.253" y2="357.361" gradientUnits="userSpaceOnUse">
<stop stop-color="#F7DD43"/>
<stop offset="1" stop-color="#F7DD43" stop-opacity="0"/>
</linearGradient>
<linearGradient id="paint77_linear_175_198" x1="865.253" y1="95.0547" x2="865.253" y2="357.361" gradientUnits="userSpaceOnUse">
<stop stop-color="#F7DD43"/>
<stop offset="1" stop-color="#F7DD43" stop-opacity="0"/>
</linearGradient>
<linearGradient id="paint78_linear_175_198" x1="865.253" y1="95.0547" x2="865.253" y2="357.361" gradientUnits="userSpaceOnUse">
<stop stop-color="#F7DD43"/>
<stop offset="1" stop-color="#F7DD43" stop-opacity="0"/>
</linearGradient>
<linearGradient id="paint79_linear_175_198" x1="865.253" y1="95.0547" x2="865.253" y2="357.361" gradientUnits="userSpaceOnUse">
<stop stop-color="#F7DD43"/>
<stop offset="1" stop-color="#F7DD43" stop-opacity="0"/>
</linearGradient>
<linearGradient id="paint80_linear_175_198" x1="865.253" y1="95.0547" x2="865.253" y2="357.361" gradientUnits="userSpaceOnUse">
<stop stop-color="#F7DD43"/>
<stop offset="1" stop-color="#F7DD43" stop-opacity="0"/>
</linearGradient>
<linearGradient id="paint81_linear_175_198" x1="865.253" y1="95.0547" x2="865.253" y2="357.361" gradientUnits="userSpaceOnUse">
<stop stop-color="#F7DD43"/>
<stop offset="1" stop-color="#F7DD43" stop-opacity="0"/>
</linearGradient>
<linearGradient id="paint82_linear_175_198" x1="865.253" y1="95.0547" x2="865.253" y2="357.361" gradientUnits="userSpaceOnUse">
<stop stop-color="#F7DD43"/>
<stop offset="1" stop-color="#F7DD43" stop-opacity="0"/>
</linearGradient>
<linearGradient id="paint83_linear_175_198" x1="865.253" y1="95.0547" x2="865.253" y2="357.361" gradientUnits="userSpaceOnUse">
<stop stop-color="#F7DD43"/>
<stop offset="1" stop-color="#F7DD43" stop-opacity="0"/>
</linearGradient>
<linearGradient id="paint84_linear_175_198" x1="865.253" y1="95.0547" x2="865.253" y2="357.361" gradientUnits="userSpaceOnUse">
<stop stop-color="#F7DD43"/>
<stop offset="1" stop-color="#F7DD43" stop-opacity="0"/>
</linearGradient>
<linearGradient id="paint85_linear_175_198" x1="865.253" y1="95.0547" x2="865.253" y2="357.361" gradientUnits="userSpaceOnUse">
<stop stop-color="#F7DD43"/>
<stop offset="1" stop-color="#F7DD43" stop-opacity="0"/>
</linearGradient>
<linearGradient id="paint86_linear_175_198" x1="865.253" y1="95.0547" x2="865.253" y2="357.361" gradientUnits="userSpaceOnUse">
<stop stop-color="#F7DD43"/>
<stop offset="1" stop-color="#F7DD43" stop-opacity="0"/>
</linearGradient>
<linearGradient id="paint87_linear_175_198" x1="865.253" y1="95.0547" x2="865.253" y2="357.361" gradientUnits="userSpaceOnUse">
<stop stop-color="#F7DD43"/>
<stop offset="1" stop-color="#F7DD43" stop-opacity="0"/>
</linearGradient>
<linearGradient id="paint88_linear_175_198" x1="865.253" y1="95.0547" x2="865.253" y2="357.361" gradientUnits="userSpaceOnUse">
<stop stop-color="#F7DD43"/>
<stop offset="1" stop-color="#F7DD43" stop-opacity="0"/>
</linearGradient>
<linearGradient id="paint89_linear_175_198" x1="865.253" y1="95.0547" x2="865.253" y2="357.361" gradientUnits="userSpaceOnUse">
<stop stop-color="#F7DD43"/>
<stop offset="1" stop-color="#F7DD43" stop-opacity="0"/>
</linearGradient>
<linearGradient id="paint90_linear_175_198" x1="865.253" y1="95.0547" x2="865.253" y2="357.361" gradientUnits="userSpaceOnUse">
<stop stop-color="#F7DD43"/>
<stop offset="1" stop-color="#F7DD43" stop-opacity="0"/>
</linearGradient>
<linearGradient id="paint91_linear_175_198" x1="865.253" y1="95.0547" x2="865.253" y2="357.361" gradientUnits="userSpaceOnUse">
<stop stop-color="#F7DD43"/>
<stop offset="1" stop-color="#F7DD43" stop-opacity="0"/>
</linearGradient>
<linearGradient id="paint92_linear_175_198" x1="865.253" y1="95.0547" x2="865.253" y2="357.361" gradientUnits="userSpaceOnUse">
<stop stop-color="#F7DD43"/>
<stop offset="1" stop-color="#F7DD43" stop-opacity="0"/>
</linearGradient>
<linearGradient id="paint93_linear_175_198" x1="865.253" y1="95.0547" x2="865.253" y2="357.361" gradientUnits="userSpaceOnUse">
<stop stop-color="#F7DD43"/>
<stop offset="1" stop-color="#F7DD43" stop-opacity="0"/>
</linearGradient>
</defs>
</svg>
