<svg width="1024" height="753" viewBox="0 0 1024 753" fill="none" xmlns="http://www.w3.org/2000/svg">
<g opacity="0.2" filter="url(#filter0_f_175_198)">
<ellipse cx="530.5" cy="92" rx="670.5" ry="350" fill="#338AF3"/>
</g>
<path d="M51.0349 328C52.5302 328 53.6622 328.63 54.4308 329.891C55.2134 331.138 55.6047 332.953 55.6047 335.336C55.6047 337.719 55.2134 339.541 54.4308 340.802C53.6622 342.063 52.5302 342.693 51.0349 342.693C49.5536 342.693 48.4216 342.063 47.639 340.802C46.8564 339.541 46.4651 337.719 46.4651 335.336C46.4651 332.967 46.8564 331.152 47.639 329.891C48.4216 328.63 49.5536 328 51.0349 328ZM47.9534 335.336C47.9534 337.026 48.1072 338.35 48.4146 339.306L53.0683 330.099C52.5791 329.448 51.9013 329.122 51.0349 329.122C50.0706 329.122 49.316 329.635 48.771 330.66C48.2259 331.672 47.9534 333.23 47.9534 335.336ZM51.0349 341.55C52.0131 341.55 52.7748 341.044 53.3198 340.033C53.8648 339.008 54.1373 337.442 54.1373 335.336C54.1373 333.549 53.9627 332.163 53.6133 331.18L48.9596 340.469C49.4627 341.19 50.1545 341.55 51.0349 341.55Z" fill="url(#paint0_linear_175_198)" fill-opacity="0.6"/>
<path d="M52.2926 365.135H55.3741V366.236H47.3874V365.135H50.9511V353.455L47.5551 355.471L46.9682 354.536L51.1607 351.959H52.2926V365.135Z" fill="url(#paint1_linear_175_198)" fill-opacity="0.6"/>
<path d="M51.0349 375.502C52.5302 375.502 53.6622 376.133 54.4308 377.393C55.2134 378.64 55.6047 380.455 55.6047 382.838C55.6047 385.221 55.2134 387.043 54.4308 388.304C53.6622 389.565 52.5302 390.195 51.0349 390.195C49.5536 390.195 48.4216 389.565 47.639 388.304C46.8564 387.043 46.4651 385.221 46.4651 382.838C46.4651 380.469 46.8564 378.654 47.639 377.393C48.4216 376.133 49.5536 375.502 51.0349 375.502ZM47.9534 382.838C47.9534 384.529 48.1072 385.852 48.4146 386.808L53.0683 377.601C52.5791 376.95 51.9013 376.624 51.0349 376.624C50.0706 376.624 49.316 377.137 48.771 378.162C48.2259 379.174 47.9534 380.732 47.9534 382.838ZM51.0349 389.052C52.0131 389.052 52.7748 388.546 53.3198 387.535C53.8648 386.51 54.1373 384.944 54.1373 382.838C54.1373 381.051 53.9627 379.665 53.6133 378.682L48.9596 387.971C49.4627 388.692 50.1545 389.052 51.0349 389.052Z" fill="url(#paint2_linear_175_198)" fill-opacity="0.6"/>
<path d="M52.2926 412.637H55.3741V413.738H47.3874V412.637H50.9511V400.957L47.5551 402.973L46.9682 402.038L51.1607 399.461H52.2926V412.637Z" fill="url(#paint3_linear_175_198)" fill-opacity="0.6"/>
<path d="M52.2926 436.388H55.3741V437.489H47.3874V436.388H50.9511V424.708L47.5551 426.724L46.9682 425.789L51.1607 423.212H52.2926V436.388Z" fill="url(#paint4_linear_175_198)" fill-opacity="0.6"/>
<path d="M51.0349 446.755C52.5302 446.755 53.6622 447.386 54.4308 448.646C55.2134 449.893 55.6047 451.708 55.6047 454.091C55.6047 456.474 55.2134 458.296 54.4308 459.557C53.6622 460.818 52.5302 461.448 51.0349 461.448C49.5536 461.448 48.4216 460.818 47.639 459.557C46.8564 458.296 46.4651 456.474 46.4651 454.091C46.4651 451.722 46.8564 449.907 47.639 448.646C48.4216 447.386 49.5536 446.755 51.0349 446.755ZM47.9534 454.091C47.9534 455.782 48.1072 457.105 48.4146 458.061L53.0683 448.854C52.5791 448.203 51.9013 447.878 51.0349 447.878C50.0706 447.878 49.316 448.39 48.771 449.415C48.2259 450.427 47.9534 451.985 47.9534 454.091ZM51.0349 460.305C52.0131 460.305 52.7748 459.8 53.3198 458.788C53.8648 457.763 54.1373 456.197 54.1373 454.091C54.1373 452.304 53.9627 450.919 53.6133 449.935L48.9596 459.225C49.4627 459.945 50.1545 460.305 51.0349 460.305Z" fill="url(#paint5_linear_175_198)" fill-opacity="0.6"/>
<path d="M52.2926 483.89H55.3741V484.992H47.3874V483.89H50.9511V472.21L47.5551 474.226L46.9682 473.291L51.1607 470.714H52.2926V483.89Z" fill="url(#paint6_linear_175_198)" fill-opacity="0.6"/>
<path d="M51.0349 494.257C52.5302 494.257 53.6622 494.888 54.4308 496.149C55.2134 497.396 55.6047 499.211 55.6047 501.594C55.6047 503.977 55.2134 505.798 54.4308 507.059C53.6622 508.32 52.5302 508.95 51.0349 508.95C49.5536 508.95 48.4216 508.32 47.639 507.059C46.8564 505.798 46.4651 503.977 46.4651 501.594C46.4651 499.224 46.8564 497.409 47.639 496.149C48.4216 494.888 49.5536 494.257 51.0349 494.257ZM47.9534 501.594C47.9534 503.284 48.1072 504.607 48.4146 505.563L53.0683 496.356C52.5791 495.705 51.9013 495.38 51.0349 495.38C50.0706 495.38 49.316 495.892 48.771 496.918C48.2259 497.929 47.9534 499.488 47.9534 501.594ZM51.0349 507.807C52.0131 507.807 52.7748 507.302 53.3198 506.29C53.8648 505.265 54.1373 503.699 54.1373 501.594C54.1373 499.806 53.9627 498.421 53.6133 497.437L48.9596 506.727C49.4627 507.447 50.1545 507.807 51.0349 507.807Z" fill="url(#paint7_linear_175_198)" fill-opacity="0.6"/>
<path d="M51.0349 518.008C52.5302 518.008 53.6622 518.639 54.4308 519.9C55.2134 521.147 55.6047 522.962 55.6047 525.345C55.6047 527.728 55.2134 529.549 54.4308 530.81C53.6622 532.071 52.5302 532.701 51.0349 532.701C49.5536 532.701 48.4216 532.071 47.639 530.81C46.8564 529.549 46.4651 527.728 46.4651 525.345C46.4651 522.975 46.8564 521.16 47.639 519.9C48.4216 518.639 49.5536 518.008 51.0349 518.008ZM47.9534 525.345C47.9534 527.035 48.1072 528.358 48.4146 529.314L53.0683 520.107C52.5791 519.456 51.9013 519.131 51.0349 519.131C50.0706 519.131 49.316 519.643 48.771 520.669C48.2259 521.68 47.9534 523.239 47.9534 525.345ZM51.0349 531.558C52.0131 531.558 52.7748 531.053 53.3198 530.041C53.8648 529.016 54.1373 527.451 54.1373 525.345C54.1373 523.557 53.9627 522.172 53.6133 521.188L48.9596 530.478C49.4627 531.198 50.1545 531.558 51.0349 531.558Z" fill="url(#paint8_linear_175_198)" fill-opacity="0.6"/>
<path d="M52.2926 555.143H55.3741V556.245H47.3874V555.143H50.9511V543.464L47.5551 545.48L46.9682 544.544L51.1607 541.967H52.2926V555.143Z" fill="url(#paint9_linear_175_198)" fill-opacity="0.6"/>
<path d="M51.0349 565.511C52.5302 565.511 53.6622 566.141 54.4308 567.402C55.2134 568.649 55.6047 570.464 55.6047 572.847C55.6047 575.23 55.2134 577.052 54.4308 578.312C53.6622 579.573 52.5302 580.204 51.0349 580.204C49.5536 580.204 48.4216 579.573 47.639 578.312C46.8564 577.052 46.4651 575.23 46.4651 572.847C46.4651 570.478 46.8564 568.663 47.639 567.402C48.4216 566.141 49.5536 565.511 51.0349 565.511ZM47.9534 572.847C47.9534 574.537 48.1072 575.86 48.4146 576.816L53.0683 567.61C52.5791 566.958 51.9013 566.633 51.0349 566.633C50.0706 566.633 49.316 567.145 48.771 568.171C48.2259 569.182 47.9534 570.741 47.9534 572.847ZM51.0349 579.061C52.0131 579.061 52.7748 578.555 53.3198 577.543C53.8648 576.518 54.1373 574.953 54.1373 572.847C54.1373 571.059 53.9627 569.674 53.6133 568.69L48.9596 577.98C49.4627 578.7 50.1545 579.061 51.0349 579.061Z" fill="url(#paint10_linear_175_198)" fill-opacity="0.6"/>
<path d="M52.2926 602.645H55.3741V603.747H47.3874V602.645H50.9511V590.966L47.5551 592.982L46.9682 592.046L51.1607 589.469H52.2926V602.645Z" fill="url(#paint11_linear_175_198)" fill-opacity="0.6"/>
<path d="M52.2926 626.396H55.3741V627.498H47.3874V626.396H50.9511V614.717L47.5551 616.733L46.9682 615.798L51.1607 613.221H52.2926V626.396Z" fill="url(#paint12_linear_175_198)" fill-opacity="0.6"/>
<path d="M89.9651 375.502C91.4604 375.502 92.5924 376.133 93.361 377.393C94.1436 378.64 94.5349 380.455 94.5349 382.838C94.5349 385.221 94.1436 387.043 93.361 388.304C92.5924 389.565 91.4604 390.195 89.9651 390.195C88.4838 390.195 87.3518 389.565 86.5692 388.304C85.7866 387.043 85.3953 385.221 85.3953 382.838C85.3953 380.469 85.7866 378.654 86.5692 377.393C87.3518 376.133 88.4838 375.502 89.9651 375.502ZM86.8836 382.838C86.8836 384.529 87.0374 385.852 87.3448 386.808L91.9985 377.601C91.5093 376.95 90.8315 376.624 89.9651 376.624C89.0008 376.624 88.2462 377.137 87.7012 378.162C87.1561 379.174 86.8836 380.732 86.8836 382.838ZM89.9651 389.052C90.9433 389.052 91.705 388.546 92.25 387.535C92.795 386.51 93.0675 384.944 93.0675 382.838C93.0675 381.051 92.8928 379.665 92.5435 378.682L87.8898 387.971C88.3929 388.692 89.0847 389.052 89.9651 389.052Z" fill="url(#paint13_linear_175_198)" fill-opacity="0.6"/>
<path d="M91.2228 412.637H94.3043V413.738H86.3176V412.637H89.8812V400.957L86.4853 402.973L85.8984 402.038L90.0909 399.461H91.2228V412.637Z" fill="url(#paint14_linear_175_198)" fill-opacity="0.6"/>
<path d="M89.9651 423.004C91.4604 423.004 92.5924 423.635 93.361 424.895C94.1436 426.142 94.5349 427.957 94.5349 430.34C94.5349 432.723 94.1436 434.545 93.361 435.806C92.5924 437.067 91.4604 437.697 89.9651 437.697C88.4838 437.697 87.3518 437.067 86.5692 435.806C85.7866 434.545 85.3953 432.723 85.3953 430.34C85.3953 427.971 85.7866 426.156 86.5692 424.895C87.3518 423.635 88.4838 423.004 89.9651 423.004ZM86.8836 430.34C86.8836 432.031 87.0374 433.354 87.3448 434.31L91.9985 425.103C91.5093 424.452 90.8315 424.126 89.9651 424.126C89.0008 424.126 88.2462 424.639 87.7012 425.664C87.1561 426.676 86.8836 428.234 86.8836 430.34ZM89.9651 436.554C90.9433 436.554 91.705 436.049 92.25 435.037C92.795 434.012 93.0675 432.446 93.0675 430.34C93.0675 428.553 92.8928 427.168 92.5435 426.184L87.8898 435.474C88.3929 436.194 89.0847 436.554 89.9651 436.554Z" fill="url(#paint15_linear_175_198)" fill-opacity="0.6"/>
<path d="M89.9651 446.755C91.4604 446.755 92.5924 447.386 93.361 448.646C94.1436 449.893 94.5349 451.708 94.5349 454.091C94.5349 456.474 94.1436 458.296 93.361 459.557C92.5924 460.818 91.4604 461.448 89.9651 461.448C88.4838 461.448 87.3518 460.818 86.5692 459.557C85.7866 458.296 85.3953 456.474 85.3953 454.091C85.3953 451.722 85.7866 449.907 86.5692 448.646C87.3518 447.386 88.4838 446.755 89.9651 446.755ZM86.8836 454.091C86.8836 455.782 87.0374 457.105 87.3448 458.061L91.9985 448.854C91.5093 448.203 90.8315 447.878 89.9651 447.878C89.0008 447.878 88.2462 448.39 87.7012 449.415C87.1561 450.427 86.8836 451.985 86.8836 454.091ZM89.9651 460.305C90.9433 460.305 91.705 459.8 92.25 458.788C92.795 457.763 93.0675 456.197 93.0675 454.091C93.0675 452.304 92.8928 450.919 92.5435 449.935L87.8898 459.225C88.3929 459.945 89.0847 460.305 89.9651 460.305Z" fill="url(#paint16_linear_175_198)" fill-opacity="0.6"/>
<path d="M91.2228 483.89H94.3043V484.992H86.3176V483.89H89.8812V472.21L86.4853 474.226L85.8984 473.291L90.0909 470.714H91.2228V483.89Z" fill="url(#paint17_linear_175_198)" fill-opacity="0.6"/>
<path d="M89.9651 494.257C91.4604 494.257 92.5924 494.888 93.361 496.149C94.1436 497.396 94.5349 499.211 94.5349 501.594C94.5349 503.977 94.1436 505.798 93.361 507.059C92.5924 508.32 91.4604 508.95 89.9651 508.95C88.4838 508.95 87.3518 508.32 86.5692 507.059C85.7866 505.798 85.3953 503.977 85.3953 501.594C85.3953 499.224 85.7866 497.409 86.5692 496.149C87.3518 494.888 88.4838 494.257 89.9651 494.257ZM86.8836 501.594C86.8836 503.284 87.0374 504.607 87.3448 505.563L91.9985 496.356C91.5093 495.705 90.8315 495.38 89.9651 495.38C89.0008 495.38 88.2462 495.892 87.7012 496.918C87.1561 497.929 86.8836 499.488 86.8836 501.594ZM89.9651 507.807C90.9433 507.807 91.705 507.302 92.25 506.29C92.795 505.265 93.0675 503.699 93.0675 501.594C93.0675 499.806 92.8928 498.421 92.5435 497.437L87.8898 506.727C88.3929 507.447 89.0847 507.807 89.9651 507.807Z" fill="url(#paint18_linear_175_198)" fill-opacity="0.6"/>
<path d="M91.2228 531.392H94.3043V532.494H86.3176V531.392H89.8812V519.713L86.4853 521.728L85.8984 520.793L90.0909 518.216H91.2228V531.392Z" fill="url(#paint19_linear_175_198)" fill-opacity="0.6"/>
<path d="M89.9651 541.76C91.4604 541.76 92.5924 542.39 93.361 543.651C94.1436 544.898 94.5349 546.713 94.5349 549.096C94.5349 551.479 94.1436 553.301 93.361 554.561C92.5924 555.822 91.4604 556.453 89.9651 556.453C88.4838 556.453 87.3518 555.822 86.5692 554.561C85.7866 553.301 85.3953 551.479 85.3953 549.096C85.3953 546.726 85.7866 544.911 86.5692 543.651C87.3518 542.39 88.4838 541.76 89.9651 541.76ZM86.8836 549.096C86.8836 550.786 87.0374 552.109 87.3448 553.065L91.9985 543.859C91.5093 543.207 90.8315 542.882 89.9651 542.882C89.0008 542.882 88.2462 543.394 87.7012 544.42C87.1561 545.431 86.8836 546.99 86.8836 549.096ZM89.9651 555.31C90.9433 555.31 91.705 554.804 92.25 553.792C92.795 552.767 93.0675 551.202 93.0675 549.096C93.0675 547.308 92.8928 545.923 92.5435 544.939L87.8898 554.229C88.3929 554.949 89.0847 555.31 89.9651 555.31Z" fill="url(#paint20_linear_175_198)" fill-opacity="0.6"/>
<path d="M89.9651 565.511C91.4604 565.511 92.5924 566.141 93.361 567.402C94.1436 568.649 94.5349 570.464 94.5349 572.847C94.5349 575.23 94.1436 577.052 93.361 578.312C92.5924 579.573 91.4604 580.204 89.9651 580.204C88.4838 580.204 87.3518 579.573 86.5692 578.312C85.7866 577.052 85.3953 575.23 85.3953 572.847C85.3953 570.478 85.7866 568.663 86.5692 567.402C87.3518 566.141 88.4838 565.511 89.9651 565.511ZM86.8836 572.847C86.8836 574.537 87.0374 575.86 87.3448 576.816L91.9985 567.61C91.5093 566.958 90.8315 566.633 89.9651 566.633C89.0008 566.633 88.2462 567.145 87.7012 568.171C87.1561 569.182 86.8836 570.741 86.8836 572.847ZM89.9651 579.061C90.9433 579.061 91.705 578.555 92.25 577.543C92.795 576.518 93.0675 574.953 93.0675 572.847C93.0675 571.059 92.8928 569.674 92.5435 568.69L87.8898 577.98C88.3929 578.7 89.0847 579.061 89.9651 579.061Z" fill="url(#paint21_linear_175_198)" fill-opacity="0.6"/>
<path d="M91.2228 602.645H94.3043V603.747H86.3176V602.645H89.8812V590.966L86.4853 592.982L85.8984 592.046L90.0909 589.469H91.2228V602.645Z" fill="url(#paint22_linear_175_198)" fill-opacity="0.6"/>
<path d="M89.9651 613.013C91.4604 613.013 92.5924 613.643 93.361 614.904C94.1436 616.151 94.5349 617.966 94.5349 620.349C94.5349 622.732 94.1436 624.554 93.361 625.815C92.5924 627.075 91.4604 627.706 89.9651 627.706C88.4838 627.706 87.3518 627.075 86.5692 625.815C85.7866 624.554 85.3953 622.732 85.3953 620.349C85.3953 617.98 85.7866 616.165 86.5692 614.904C87.3518 613.643 88.4838 613.013 89.9651 613.013ZM86.8836 620.349C86.8836 622.039 87.0374 623.362 87.3448 624.318L91.9985 615.112C91.5093 614.461 90.8315 614.135 89.9651 614.135C89.0008 614.135 88.2462 614.648 87.7012 615.673C87.1561 616.684 86.8836 618.243 86.8836 620.349ZM89.9651 626.563C90.9433 626.563 91.705 626.057 92.25 625.046C92.795 624.02 93.0675 622.455 93.0675 620.349C93.0675 618.562 92.8928 617.176 92.5435 616.192L87.8898 625.482C88.3929 626.202 89.0847 626.563 89.9651 626.563Z" fill="url(#paint23_linear_175_198)" fill-opacity="0.6"/>
<path d="M91.2228 650.147H94.3043V651.249H86.3176V650.147H89.8812V638.468L86.4853 640.484L85.8984 639.549L90.0909 636.972H91.2228V650.147Z" fill="url(#paint24_linear_175_198)" fill-opacity="0.6"/>
<path d="M91.2228 673.899H94.3043V675H86.3176V673.899H89.8812V662.219L86.4853 664.235L85.8984 663.3L90.0909 660.723H91.2228V673.899Z" fill="url(#paint25_linear_175_198)" fill-opacity="0.6"/>
<path d="M31.5698 399.253C33.0651 399.253 34.1971 399.884 34.9657 401.144C35.7483 402.391 36.1396 404.206 36.1396 406.589C36.1396 408.972 35.7483 410.794 34.9657 412.055C34.1971 413.316 33.0651 413.946 31.5698 413.946C30.0885 413.946 28.9565 413.316 28.1739 412.055C27.3913 410.794 27 408.972 27 406.589C27 404.22 27.3913 402.405 28.1739 401.144C28.9565 399.884 30.0885 399.253 31.5698 399.253ZM28.4883 406.589C28.4883 408.28 28.6421 409.603 28.9495 410.559L33.6032 401.352C33.114 400.701 32.4363 400.375 31.5698 400.375C30.6055 400.375 29.8509 400.888 29.3059 401.913C28.7608 402.925 28.4883 404.483 28.4883 406.589ZM31.5698 412.803C32.5481 412.803 33.3097 412.297 33.8547 411.286C34.3997 410.261 34.6722 408.695 34.6722 406.589C34.6722 404.802 34.4976 403.417 34.1482 402.433L29.4945 411.722C29.9976 412.443 30.6894 412.803 31.5698 412.803Z" fill="url(#paint26_linear_175_198)" fill-opacity="0.6"/>
<path d="M31.5698 423.004C33.0651 423.004 34.1971 423.635 34.9657 424.895C35.7483 426.142 36.1396 427.957 36.1396 430.34C36.1396 432.723 35.7483 434.545 34.9657 435.806C34.1971 437.067 33.0651 437.697 31.5698 437.697C30.0885 437.697 28.9565 437.067 28.1739 435.806C27.3913 434.545 27 432.723 27 430.34C27 427.971 27.3913 426.156 28.1739 424.895C28.9565 423.635 30.0885 423.004 31.5698 423.004ZM28.4883 430.34C28.4883 432.031 28.6421 433.354 28.9495 434.31L33.6032 425.103C33.114 424.452 32.4363 424.126 31.5698 424.126C30.6055 424.126 29.8509 424.639 29.3059 425.664C28.7608 426.676 28.4883 428.234 28.4883 430.34ZM31.5698 436.554C32.5481 436.554 33.3097 436.049 33.8547 435.037C34.3997 434.012 34.6722 432.446 34.6722 430.34C34.6722 428.553 34.4976 427.168 34.1482 426.184L29.4945 435.474C29.9976 436.194 30.6894 436.554 31.5698 436.554Z" fill="url(#paint27_linear_175_198)" fill-opacity="0.6"/>
<path d="M32.8276 460.139H35.909V461.24H27.9223V460.139H31.486V448.459L28.09 450.475L27.5031 449.54L31.6956 446.963H32.8276V460.139Z" fill="url(#paint28_linear_175_198)" fill-opacity="0.6"/>
<path d="M31.5698 470.506C33.0651 470.506 34.1971 471.137 34.9657 472.398C35.7483 473.644 36.1396 475.459 36.1396 477.842C36.1396 480.225 35.7483 482.047 34.9657 483.308C34.1971 484.569 33.0651 485.199 31.5698 485.199C30.0885 485.199 28.9565 484.569 28.1739 483.308C27.3913 482.047 27 480.225 27 477.842C27 475.473 27.3913 473.658 28.1739 472.398C28.9565 471.137 30.0885 470.506 31.5698 470.506ZM28.4883 477.842C28.4883 479.533 28.6421 480.856 28.9495 481.812L33.6032 472.605C33.114 471.954 32.4363 471.629 31.5698 471.629C30.6055 471.629 29.8509 472.141 29.3059 473.166C28.7608 474.178 28.4883 475.737 28.4883 477.842ZM31.5698 484.056C32.5481 484.056 33.3097 483.551 33.8547 482.539C34.3997 481.514 34.6722 479.948 34.6722 477.842C34.6722 476.055 34.4976 474.67 34.1482 473.686L29.4945 482.976C29.9976 483.696 30.6894 484.056 31.5698 484.056Z" fill="url(#paint29_linear_175_198)" fill-opacity="0.6"/>
<path d="M32.8276 507.641H35.909V508.743H27.9223V507.641H31.486V495.962L28.09 497.977L27.5031 497.042L31.6956 494.465H32.8276V507.641Z" fill="url(#paint30_linear_175_198)" fill-opacity="0.6"/>
<path d="M32.8276 531.392H35.909V532.494H27.9223V531.392H31.486V519.713L28.09 521.728L27.5031 520.793L31.6956 518.216H32.8276V531.392Z" fill="url(#paint31_linear_175_198)" fill-opacity="0.6"/>
<path d="M71.7577 365.135H74.8392V366.236H66.8525V365.135H70.4162V353.455L67.0202 355.471L66.4333 354.536L70.6258 351.959H71.7577V365.135Z" fill="url(#paint32_linear_175_198)" fill-opacity="0.6"/>
<path d="M70.5 375.502C71.9953 375.502 73.1273 376.133 73.8959 377.393C74.6785 378.64 75.0698 380.455 75.0698 382.838C75.0698 385.221 74.6785 387.043 73.8959 388.304C73.1273 389.565 71.9953 390.195 70.5 390.195C69.0187 390.195 67.8867 389.565 67.1041 388.304C66.3215 387.043 65.9302 385.221 65.9302 382.838C65.9302 380.469 66.3215 378.654 67.1041 377.393C67.8867 376.133 69.0187 375.502 70.5 375.502ZM67.4185 382.838C67.4185 384.529 67.5723 385.852 67.8797 386.808L72.5334 377.601C72.0442 376.95 71.3664 376.624 70.5 376.624C69.5357 376.624 68.7811 377.137 68.2361 378.162C67.691 379.174 67.4185 380.732 67.4185 382.838ZM70.5 389.052C71.4782 389.052 72.2399 388.546 72.7849 387.535C73.3299 386.51 73.6024 384.944 73.6024 382.838C73.6024 381.051 73.4277 379.665 73.0784 378.682L68.4247 387.971C68.9278 388.692 69.6196 389.052 70.5 389.052Z" fill="url(#paint33_linear_175_198)" fill-opacity="0.6"/>
<path d="M71.7577 412.637H74.8392V413.738H66.8525V412.637H70.4162V400.957L67.0202 402.973L66.4333 402.038L70.6258 399.461H71.7577V412.637Z" fill="url(#paint34_linear_175_198)" fill-opacity="0.6"/>
<path d="M71.7577 436.388H74.8392V437.489H66.8525V436.388H70.4162V424.708L67.0202 426.724L66.4333 425.789L70.6258 423.212H71.7577V436.388Z" fill="url(#paint35_linear_175_198)" fill-opacity="0.6"/>
<path d="M70.5 446.755C71.9953 446.755 73.1273 447.386 73.8959 448.646C74.6785 449.893 75.0698 451.708 75.0698 454.091C75.0698 456.474 74.6785 458.296 73.8959 459.557C73.1273 460.818 71.9953 461.448 70.5 461.448C69.0187 461.448 67.8867 460.818 67.1041 459.557C66.3215 458.296 65.9302 456.474 65.9302 454.091C65.9302 451.722 66.3215 449.907 67.1041 448.646C67.8867 447.386 69.0187 446.755 70.5 446.755ZM67.4185 454.091C67.4185 455.782 67.5723 457.105 67.8797 458.061L72.5334 448.854C72.0442 448.203 71.3664 447.878 70.5 447.878C69.5357 447.878 68.7811 448.39 68.2361 449.415C67.691 450.427 67.4185 451.985 67.4185 454.091ZM70.5 460.305C71.4782 460.305 72.2399 459.8 72.7849 458.788C73.3299 457.763 73.6024 456.197 73.6024 454.091C73.6024 452.304 73.4277 450.919 73.0784 449.935L68.4247 459.225C68.9278 459.945 69.6196 460.305 70.5 460.305Z" fill="url(#paint36_linear_175_198)" fill-opacity="0.6"/>
<path d="M71.7577 483.89H74.8392V484.992H66.8525V483.89H70.4162V472.21L67.0202 474.226L66.4333 473.291L70.6258 470.714H71.7577V483.89Z" fill="url(#paint37_linear_175_198)" fill-opacity="0.6"/>
<path d="M71.7577 507.641H74.8392V508.743H66.8525V507.641H70.4162V495.962L67.0202 497.977L66.4333 497.042L70.6258 494.465H71.7577V507.641Z" fill="url(#paint38_linear_175_198)" fill-opacity="0.6"/>
<path d="M70.5 518.008C71.9953 518.008 73.1273 518.639 73.8959 519.9C74.6785 521.147 75.0698 522.962 75.0698 525.345C75.0698 527.728 74.6785 529.549 73.8959 530.81C73.1273 532.071 71.9953 532.701 70.5 532.701C69.0187 532.701 67.8867 532.071 67.1041 530.81C66.3215 529.549 65.9302 527.728 65.9302 525.345C65.9302 522.975 66.3215 521.16 67.1041 519.9C67.8867 518.639 69.0187 518.008 70.5 518.008ZM67.4185 525.345C67.4185 527.035 67.5723 528.358 67.8797 529.314L72.5334 520.107C72.0442 519.456 71.3664 519.131 70.5 519.131C69.5357 519.131 68.7811 519.643 68.2361 520.669C67.691 521.68 67.4185 523.239 67.4185 525.345ZM70.5 531.558C71.4782 531.558 72.2399 531.053 72.7849 530.041C73.3299 529.016 73.6024 527.451 73.6024 525.345C73.6024 523.557 73.4277 522.172 73.0784 521.188L68.4247 530.478C68.9278 531.198 69.6196 531.558 70.5 531.558Z" fill="url(#paint39_linear_175_198)" fill-opacity="0.6"/>
<path d="M71.7577 555.143H74.8392V556.245H66.8525V555.143H70.4162V543.464L67.0202 545.48L66.4333 544.544L70.6258 541.967H71.7577V555.143Z" fill="url(#paint40_linear_175_198)" fill-opacity="0.6"/>
<path d="M70.5 565.511C71.9953 565.511 73.1273 566.141 73.8959 567.402C74.6785 568.649 75.0698 570.464 75.0698 572.847C75.0698 575.23 74.6785 577.052 73.8959 578.312C73.1273 579.573 71.9953 580.204 70.5 580.204C69.0187 580.204 67.8867 579.573 67.1041 578.312C66.3215 577.052 65.9302 575.23 65.9302 572.847C65.9302 570.478 66.3215 568.663 67.1041 567.402C67.8867 566.141 69.0187 565.511 70.5 565.511ZM67.4185 572.847C67.4185 574.537 67.5723 575.86 67.8797 576.816L72.5334 567.61C72.0442 566.958 71.3664 566.633 70.5 566.633C69.5357 566.633 68.7811 567.145 68.2361 568.171C67.691 569.182 67.4185 570.741 67.4185 572.847ZM70.5 579.061C71.4782 579.061 72.2399 578.555 72.7849 577.543C73.3299 576.518 73.6024 574.953 73.6024 572.847C73.6024 571.059 73.4277 569.674 73.0784 568.69L68.4247 577.98C68.9278 578.7 69.6196 579.061 70.5 579.061Z" fill="url(#paint41_linear_175_198)" fill-opacity="0.6"/>
<path d="M109.43 351.751C110.926 351.751 112.057 352.381 112.826 353.642C113.609 354.889 114 356.704 114 359.087C114 361.47 113.609 363.292 112.826 364.553C112.057 365.814 110.926 366.444 109.43 366.444C107.949 366.444 106.817 365.814 106.034 364.553C105.252 363.292 104.86 361.47 104.86 359.087C104.86 356.718 105.252 354.903 106.034 353.642C106.817 352.381 107.949 351.751 109.43 351.751ZM106.349 359.087C106.349 360.777 106.502 362.101 106.81 363.057L111.464 353.85C110.974 353.199 110.297 352.873 109.43 352.873C108.466 352.873 107.711 353.386 107.166 354.411C106.621 355.423 106.349 356.981 106.349 359.087ZM109.43 365.301C110.408 365.301 111.17 364.795 111.715 363.784C112.26 362.759 112.533 361.193 112.533 359.087C112.533 357.3 112.358 355.914 112.009 354.931L107.355 364.22C107.858 364.941 108.55 365.301 109.43 365.301Z" fill="url(#paint42_linear_175_198)" fill-opacity="0.6"/>
<path d="M110.688 388.886H113.769V389.987H105.783V388.886H109.346V377.206L105.95 379.222L105.363 378.287L109.556 375.71H110.688V388.886Z" fill="url(#paint43_linear_175_198)" fill-opacity="0.6"/>
<path d="M110.688 412.637H113.769V413.738H105.783V412.637H109.346V400.957L105.95 402.973L105.363 402.038L109.556 399.461H110.688V412.637Z" fill="url(#paint44_linear_175_198)" fill-opacity="0.6"/>
<path d="M109.43 423.004C110.926 423.004 112.057 423.635 112.826 424.895C113.609 426.142 114 427.957 114 430.34C114 432.723 113.609 434.545 112.826 435.806C112.057 437.067 110.926 437.697 109.43 437.697C107.949 437.697 106.817 437.067 106.034 435.806C105.252 434.545 104.86 432.723 104.86 430.34C104.86 427.971 105.252 426.156 106.034 424.895C106.817 423.635 107.949 423.004 109.43 423.004ZM106.349 430.34C106.349 432.031 106.502 433.354 106.81 434.31L111.464 425.103C110.974 424.452 110.297 424.126 109.43 424.126C108.466 424.126 107.711 424.639 107.166 425.664C106.621 426.676 106.349 428.234 106.349 430.34ZM109.43 436.554C110.408 436.554 111.17 436.049 111.715 435.037C112.26 434.012 112.533 432.446 112.533 430.34C112.533 428.553 112.358 427.168 112.009 426.184L107.355 435.474C107.858 436.194 108.55 436.554 109.43 436.554Z" fill="url(#paint45_linear_175_198)" fill-opacity="0.6"/>
<path d="M109.43 446.755C110.926 446.755 112.057 447.386 112.826 448.646C113.609 449.893 114 451.708 114 454.091C114 456.474 113.609 458.296 112.826 459.557C112.057 460.818 110.926 461.448 109.43 461.448C107.949 461.448 106.817 460.818 106.034 459.557C105.252 458.296 104.86 456.474 104.86 454.091C104.86 451.722 105.252 449.907 106.034 448.646C106.817 447.386 107.949 446.755 109.43 446.755ZM106.349 454.091C106.349 455.782 106.502 457.105 106.81 458.061L111.464 448.854C110.974 448.203 110.297 447.878 109.43 447.878C108.466 447.878 107.711 448.39 107.166 449.415C106.621 450.427 106.349 451.985 106.349 454.091ZM109.43 460.305C110.408 460.305 111.17 459.8 111.715 458.788C112.26 457.763 112.533 456.197 112.533 454.091C112.533 452.304 112.358 450.919 112.009 449.935L107.355 459.225C107.858 459.945 108.55 460.305 109.43 460.305Z" fill="url(#paint46_linear_175_198)" fill-opacity="0.6"/>
<g opacity="0.6">
<path d="M937.93 28C939.356 28 940.436 28.605 941.17 29.8149C941.916 31.0115 942.29 32.7532 942.29 35.0401C942.29 37.327 941.916 39.0754 941.17 40.2853C940.436 41.4952 939.356 42.1002 937.93 42.1002C936.517 42.1002 935.437 41.4952 934.69 40.2853C933.943 39.0754 933.57 37.327 933.57 35.0401C933.57 32.7665 933.943 31.0248 934.69 29.8149C935.437 28.605 936.517 28 937.93 28ZM934.99 35.0401C934.99 36.6622 935.137 37.932 935.43 38.8494L939.87 30.0143C939.403 29.3894 938.756 29.077 937.93 29.077C937.01 29.077 936.29 29.5689 935.77 30.5528C935.25 31.5234 934.99 33.0192 934.99 35.0401ZM937.93 41.0033C938.863 41.0033 939.59 40.518 940.11 39.5474C940.63 38.5635 940.89 37.0611 940.89 35.0401C940.89 33.325 940.723 31.9954 940.39 31.0514L935.95 39.9662C936.43 40.6576 937.09 41.0033 937.93 41.0033Z" fill="url(#paint47_linear_175_198)"/>
<path d="M939.13 63.6365H942.07V64.6936H934.45V63.6365H937.85V52.4282L934.61 54.3627L934.05 53.4653L938.05 50.9922H939.13V63.6365Z" fill="url(#paint48_linear_175_198)"/>
<path d="M937.93 73.5856C939.356 73.5856 940.436 74.1906 941.17 75.4005C941.916 76.5971 942.29 78.3389 942.29 80.6257C942.29 82.9126 941.916 84.661 941.17 85.8709C940.436 87.0808 939.356 87.6858 937.93 87.6858C936.517 87.6858 935.437 87.0808 934.69 85.8709C933.943 84.661 933.57 82.9126 933.57 80.6257C933.57 78.3521 933.943 76.6104 934.69 75.4005C935.437 74.1906 936.517 73.5856 937.93 73.5856ZM934.99 80.6257C934.99 82.2478 935.137 83.5176 935.43 84.435L939.87 75.5999C939.403 74.975 938.756 74.6626 937.93 74.6626C937.01 74.6626 936.29 75.1545 935.77 76.1384C935.25 77.109 934.99 78.6048 934.99 80.6257ZM937.93 86.5889C938.863 86.5889 939.59 86.1036 940.11 85.133C940.63 84.1491 940.89 82.6467 940.89 80.6257C940.89 78.9106 940.723 77.581 940.39 76.637L935.95 85.5518C936.43 86.2432 937.09 86.5889 937.93 86.5889Z" fill="url(#paint49_linear_175_198)"/>
<path d="M939.13 109.222H942.07V110.279H934.45V109.222H937.85V98.0138L934.61 99.9483L934.05 99.0509L938.05 96.5778H939.13V109.222Z" fill="url(#paint50_linear_175_198)"/>
<path d="M939.13 132.015H942.07V133.072H934.45V132.015H937.85V120.807L934.61 122.741L934.05 121.844L938.05 119.371H939.13V132.015Z" fill="url(#paint51_linear_175_198)"/>
<path d="M937.93 141.964C939.356 141.964 940.436 142.569 941.17 143.779C941.916 144.976 942.29 146.717 942.29 149.004C942.29 151.291 941.916 153.039 941.17 154.249C940.436 155.459 939.356 156.064 937.93 156.064C936.517 156.064 935.437 155.459 934.69 154.249C933.943 153.039 933.57 151.291 933.57 149.004C933.57 146.731 933.943 144.989 934.69 143.779C935.437 142.569 936.517 141.964 937.93 141.964ZM934.99 149.004C934.99 150.626 935.137 151.896 935.43 152.813L939.87 143.978C939.403 143.353 938.756 143.041 937.93 143.041C937.01 143.041 936.29 143.533 935.77 144.517C935.25 145.487 934.99 146.983 934.99 149.004ZM937.93 154.967C938.863 154.967 939.59 154.482 940.11 153.511C940.63 152.528 940.89 151.025 940.89 149.004C940.89 147.289 940.723 145.959 940.39 145.015L935.95 153.93C936.43 154.622 937.09 154.967 937.93 154.967Z" fill="url(#paint52_linear_175_198)"/>
<path d="M939.13 177.601H942.07V178.658H934.45V177.601H937.85V166.392L934.61 168.327L934.05 167.429L938.05 164.956H939.13V177.601Z" fill="url(#paint53_linear_175_198)"/>
<path d="M937.93 187.55C939.356 187.55 940.436 188.155 941.17 189.365C941.916 190.561 942.29 192.303 942.29 194.59C942.29 196.877 941.916 198.625 941.17 199.835C940.436 201.045 939.356 201.65 937.93 201.65C936.517 201.65 935.437 201.045 934.69 199.835C933.943 198.625 933.57 196.877 933.57 194.59C933.57 192.316 933.943 190.574 934.69 189.365C935.437 188.155 936.517 187.55 937.93 187.55ZM934.99 194.59C934.99 196.212 935.137 197.482 935.43 198.399L939.87 189.564C939.403 188.939 938.756 188.627 937.93 188.627C937.01 188.627 936.29 189.119 935.77 190.102C935.25 191.073 934.99 192.569 934.99 194.59ZM937.93 200.553C938.863 200.553 939.59 200.068 940.11 199.097C940.63 198.113 940.89 196.611 940.89 194.59C940.89 192.875 940.723 191.545 940.39 190.601L935.95 199.516C936.43 200.207 937.09 200.553 937.93 200.553Z" fill="url(#paint54_linear_175_198)"/>
<path d="M937.93 210.342C939.356 210.342 940.436 210.947 941.17 212.157C941.916 213.354 942.29 215.096 942.29 217.383C942.29 219.669 941.916 221.418 941.17 222.628C940.436 223.838 939.356 224.443 937.93 224.443C936.517 224.443 935.437 223.838 934.69 222.628C933.943 221.418 933.57 219.669 933.57 217.383C933.57 215.109 933.943 213.367 934.69 212.157C935.437 210.947 936.517 210.342 937.93 210.342ZM934.99 217.383C934.99 219.005 935.137 220.274 935.43 221.192L939.87 212.357C939.403 211.732 938.756 211.419 937.93 211.419C937.01 211.419 936.29 211.911 935.77 212.895C935.25 213.866 934.99 215.362 934.99 217.383ZM937.93 223.346C938.863 223.346 939.59 222.86 940.11 221.89C940.63 220.906 940.89 219.404 940.89 217.383C940.89 215.667 940.723 214.338 940.39 213.394L935.95 222.309C936.43 223 937.09 223.346 937.93 223.346Z" fill="url(#paint55_linear_175_198)"/>
<path d="M939.13 245.979H942.07V247.036H934.45V245.979H937.85V234.771L934.61 236.705L934.05 235.808L938.05 233.335H939.13V245.979Z" fill="url(#paint56_linear_175_198)"/>
<path d="M937.93 255.928C939.356 255.928 940.436 256.533 941.17 257.743C941.916 258.94 942.29 260.681 942.29 262.968C942.29 265.255 941.916 267.003 941.17 268.213C940.436 269.423 939.356 270.028 937.93 270.028C936.517 270.028 935.437 269.423 934.69 268.213C933.943 267.003 933.57 265.255 933.57 262.968C933.57 260.695 933.943 258.953 934.69 257.743C935.437 256.533 936.517 255.928 937.93 255.928ZM934.99 262.968C934.99 264.59 935.137 265.86 935.43 266.777L939.87 257.942C939.403 257.317 938.756 257.005 937.93 257.005C937.01 257.005 936.29 257.497 935.77 258.481C935.25 259.451 934.99 260.947 934.99 262.968ZM937.93 268.931C938.863 268.931 939.59 268.446 940.11 267.475C940.63 266.492 940.89 264.989 940.89 262.968C940.89 261.253 940.723 259.923 940.39 258.979L935.95 267.894C936.43 268.586 937.09 268.931 937.93 268.931Z" fill="url(#paint57_linear_175_198)"/>
<path d="M939.13 291.565H942.07V292.622H934.45V291.565H937.85V280.356L934.61 282.291L934.05 281.393L938.05 278.92H939.13V291.565Z" fill="url(#paint58_linear_175_198)"/>
<path d="M939.13 314.357H942.07V315.414H934.45V314.357H937.85V303.149L934.61 305.084L934.05 304.186L938.05 301.713H939.13V314.357Z" fill="url(#paint59_linear_175_198)"/>
<path d="M975.07 73.5856C976.497 73.5856 977.577 74.1906 978.31 75.4005C979.057 76.5971 979.43 78.3389 979.43 80.6257C979.43 82.9126 979.057 84.661 978.31 85.8709C977.577 87.0808 976.497 87.6858 975.07 87.6858C973.657 87.6858 972.577 87.0808 971.83 85.8709C971.084 84.661 970.71 82.9126 970.71 80.6257C970.71 78.3521 971.084 76.6104 971.83 75.4005C972.577 74.1906 973.657 73.5856 975.07 73.5856ZM972.13 80.6257C972.13 82.2478 972.277 83.5176 972.57 84.435L977.01 75.5999C976.543 74.975 975.897 74.6626 975.07 74.6626C974.15 74.6626 973.43 75.1545 972.91 76.1384C972.39 77.109 972.13 78.6048 972.13 80.6257ZM975.07 86.5889C976.003 86.5889 976.73 86.1036 977.25 85.133C977.77 84.1491 978.03 82.6467 978.03 80.6257C978.03 78.9106 977.863 77.581 977.53 76.637L973.09 85.5518C973.57 86.2432 974.23 86.5889 975.07 86.5889Z" fill="url(#paint60_linear_175_198)"/>
<path d="M976.27 109.222H979.21V110.279H971.59V109.222H974.99V98.0138L971.75 99.9483L971.19 99.0509L975.19 96.5778H976.27V109.222Z" fill="url(#paint61_linear_175_198)"/>
<path d="M975.07 119.171C976.497 119.171 977.577 119.776 978.31 120.986C979.057 122.183 979.43 123.924 979.43 126.211C979.43 128.498 979.057 130.247 978.31 131.457C977.577 132.666 976.497 133.271 975.07 133.271C973.657 133.271 972.577 132.666 971.83 131.457C971.084 130.247 970.71 128.498 970.71 126.211C970.71 123.938 971.084 122.196 971.83 120.986C972.577 119.776 973.657 119.171 975.07 119.171ZM972.13 126.211C972.13 127.833 972.277 129.103 972.57 130.021L977.01 121.186C976.543 120.561 975.897 120.248 975.07 120.248C974.15 120.248 973.43 120.74 972.91 121.724C972.39 122.695 972.13 124.19 972.13 126.211ZM975.07 132.174C976.003 132.174 976.73 131.689 977.25 130.719C977.77 129.735 978.03 128.232 978.03 126.211C978.03 124.496 977.863 123.167 977.53 122.223L973.09 131.137C973.57 131.829 974.23 132.174 975.07 132.174Z" fill="url(#paint62_linear_175_198)"/>
<path d="M975.07 141.964C976.497 141.964 977.577 142.569 978.31 143.779C979.057 144.976 979.43 146.717 979.43 149.004C979.43 151.291 979.057 153.039 978.31 154.249C977.577 155.459 976.497 156.064 975.07 156.064C973.657 156.064 972.577 155.459 971.83 154.249C971.084 153.039 970.71 151.291 970.71 149.004C970.71 146.731 971.084 144.989 971.83 143.779C972.577 142.569 973.657 141.964 975.07 141.964ZM972.13 149.004C972.13 150.626 972.277 151.896 972.57 152.813L977.01 143.978C976.543 143.353 975.897 143.041 975.07 143.041C974.15 143.041 973.43 143.533 972.91 144.517C972.39 145.487 972.13 146.983 972.13 149.004ZM975.07 154.967C976.003 154.967 976.73 154.482 977.25 153.511C977.77 152.528 978.03 151.025 978.03 149.004C978.03 147.289 977.863 145.959 977.53 145.015L973.09 153.93C973.57 154.622 974.23 154.967 975.07 154.967Z" fill="url(#paint63_linear_175_198)"/>
<path d="M976.27 177.601H979.21V178.658H971.59V177.601H974.99V166.392L971.75 168.327L971.19 167.429L975.19 164.956H976.27V177.601Z" fill="url(#paint64_linear_175_198)"/>
<path d="M975.07 187.55C976.497 187.55 977.577 188.155 978.31 189.365C979.057 190.561 979.43 192.303 979.43 194.59C979.43 196.877 979.057 198.625 978.31 199.835C977.577 201.045 976.497 201.65 975.07 201.65C973.657 201.65 972.577 201.045 971.83 199.835C971.084 198.625 970.71 196.877 970.71 194.59C970.71 192.316 971.084 190.574 971.83 189.365C972.577 188.155 973.657 187.55 975.07 187.55ZM972.13 194.59C972.13 196.212 972.277 197.482 972.57 198.399L977.01 189.564C976.543 188.939 975.897 188.627 975.07 188.627C974.15 188.627 973.43 189.119 972.91 190.102C972.39 191.073 972.13 192.569 972.13 194.59ZM975.07 200.553C976.003 200.553 976.73 200.068 977.25 199.097C977.77 198.113 978.03 196.611 978.03 194.59C978.03 192.875 977.863 191.545 977.53 190.601L973.09 199.516C973.57 200.207 974.23 200.553 975.07 200.553Z" fill="url(#paint65_linear_175_198)"/>
<path d="M976.27 223.186H979.21V224.243H971.59V223.186H974.99V211.978L971.75 213.912L971.19 213.015L975.19 210.542H976.27V223.186Z" fill="url(#paint66_linear_175_198)"/>
<path d="M975.07 233.135C976.497 233.135 977.577 233.74 978.31 234.95C979.057 236.147 979.43 237.888 979.43 240.175C979.43 242.462 979.057 244.211 978.31 245.421C977.577 246.63 976.497 247.235 975.07 247.235C973.657 247.235 972.577 246.63 971.83 245.421C971.084 244.211 970.71 242.462 970.71 240.175C970.71 237.902 971.084 236.16 971.83 234.95C972.577 233.74 973.657 233.135 975.07 233.135ZM972.13 240.175C972.13 241.797 972.277 243.067 972.57 243.985L977.01 235.15C976.543 234.525 975.897 234.212 975.07 234.212C974.15 234.212 973.43 234.704 972.91 235.688C972.39 236.659 972.13 238.154 972.13 240.175ZM975.07 246.139C976.003 246.139 976.73 245.653 977.25 244.683C977.77 243.699 978.03 242.196 978.03 240.175C978.03 238.46 977.863 237.131 977.53 236.187L973.09 245.101C973.57 245.793 974.23 246.139 975.07 246.139Z" fill="url(#paint67_linear_175_198)"/>
<path d="M975.07 255.928C976.497 255.928 977.577 256.533 978.31 257.743C979.057 258.94 979.43 260.681 979.43 262.968C979.43 265.255 979.057 267.003 978.31 268.213C977.577 269.423 976.497 270.028 975.07 270.028C973.657 270.028 972.577 269.423 971.83 268.213C971.084 267.003 970.71 265.255 970.71 262.968C970.71 260.695 971.084 258.953 971.83 257.743C972.577 256.533 973.657 255.928 975.07 255.928ZM972.13 262.968C972.13 264.59 972.277 265.86 972.57 266.777L977.01 257.942C976.543 257.317 975.897 257.005 975.07 257.005C974.15 257.005 973.43 257.497 972.91 258.481C972.39 259.451 972.13 260.947 972.13 262.968ZM975.07 268.931C976.003 268.931 976.73 268.446 977.25 267.475C977.77 266.492 978.03 264.989 978.03 262.968C978.03 261.253 977.863 259.923 977.53 258.979L973.09 267.894C973.57 268.586 974.23 268.931 975.07 268.931Z" fill="url(#paint68_linear_175_198)"/>
<path d="M976.27 291.565H979.21V292.622H971.59V291.565H974.99V280.356L971.75 282.291L971.19 281.393L975.19 278.92H976.27V291.565Z" fill="url(#paint69_linear_175_198)"/>
<path d="M975.07 301.514C976.497 301.514 977.577 302.119 978.31 303.329C979.057 304.525 979.43 306.267 979.43 308.554C979.43 310.841 979.057 312.589 978.31 313.799C977.577 315.009 976.497 315.614 975.07 315.614C973.657 315.614 972.577 315.009 971.83 313.799C971.084 312.589 970.71 310.841 970.71 308.554C970.71 306.28 971.084 304.538 971.83 303.329C972.577 302.119 973.657 301.514 975.07 301.514ZM972.13 308.554C972.13 310.176 972.277 311.446 972.57 312.363L977.01 303.528C976.543 302.903 975.897 302.591 975.07 302.591C974.15 302.591 973.43 303.083 972.91 304.066C972.39 305.037 972.13 306.533 972.13 308.554ZM975.07 314.517C976.003 314.517 976.73 314.032 977.25 313.061C977.77 312.077 978.03 310.575 978.03 308.554C978.03 306.839 977.863 305.509 977.53 304.565L973.09 313.48C973.57 314.171 974.23 314.517 975.07 314.517Z" fill="url(#paint70_linear_175_198)"/>
<path d="M976.27 337.15H979.21V338.207H971.59V337.15H974.99V325.942L971.75 327.876L971.19 326.979L975.19 324.506H976.27V337.15Z" fill="url(#paint71_linear_175_198)"/>
<path d="M976.27 359.943H979.21V361H971.59V359.943H974.99V348.735L971.75 350.669L971.19 349.772L975.19 347.299H976.27V359.943Z" fill="url(#paint72_linear_175_198)"/>
<path d="M919.36 96.3784C920.786 96.3784 921.866 96.9834 922.599 98.1933C923.346 99.3899 923.719 101.132 923.719 103.419C923.719 105.705 923.346 107.454 922.599 108.664C921.866 109.874 920.786 110.479 919.36 110.479C917.946 110.479 916.867 109.874 916.12 108.664C915.373 107.454 915 105.705 915 103.419C915 101.145 915.373 99.4032 916.12 98.1933C916.867 96.9834 917.946 96.3784 919.36 96.3784ZM916.42 103.419C916.42 105.041 916.567 106.31 916.86 107.228L921.3 98.3927C920.833 97.7678 920.186 97.4554 919.36 97.4554C918.44 97.4554 917.72 97.9473 917.2 98.9312C916.68 99.9018 916.42 101.398 916.42 103.419ZM919.36 109.382C920.293 109.382 921.02 108.896 921.54 107.926C922.06 106.942 922.319 105.439 922.319 103.419C922.319 101.703 922.153 100.374 921.82 99.4298L917.38 108.345C917.86 109.036 918.52 109.382 919.36 109.382Z" fill="url(#paint73_linear_175_198)"/>
<path d="M919.36 119.171C920.786 119.171 921.866 119.776 922.599 120.986C923.346 122.183 923.719 123.924 923.719 126.211C923.719 128.498 923.346 130.247 922.599 131.457C921.866 132.666 920.786 133.271 919.36 133.271C917.946 133.271 916.867 132.666 916.12 131.457C915.373 130.247 915 128.498 915 126.211C915 123.938 915.373 122.196 916.12 120.986C916.867 119.776 917.946 119.171 919.36 119.171ZM916.42 126.211C916.42 127.833 916.567 129.103 916.86 130.021L921.3 121.186C920.833 120.561 920.186 120.248 919.36 120.248C918.44 120.248 917.72 120.74 917.2 121.724C916.68 122.695 916.42 124.19 916.42 126.211ZM919.36 132.174C920.293 132.174 921.02 131.689 921.54 130.719C922.06 129.735 922.319 128.232 922.319 126.211C922.319 124.496 922.153 123.167 921.82 122.223L917.38 131.137C917.86 131.829 918.52 132.174 919.36 132.174Z" fill="url(#paint74_linear_175_198)"/>
<path d="M920.56 154.808H923.499V155.865H915.88V154.808H919.28V143.599L916.04 145.534L915.48 144.636L919.48 142.163H920.56V154.808Z" fill="url(#paint75_linear_175_198)"/>
<path d="M919.36 164.757C920.786 164.757 921.866 165.362 922.599 166.572C923.346 167.768 923.719 169.51 923.719 171.797C923.719 174.084 923.346 175.832 922.599 177.042C921.866 178.252 920.786 178.857 919.36 178.857C917.946 178.857 916.867 178.252 916.12 177.042C915.373 175.832 915 174.084 915 171.797C915 169.523 915.373 167.782 916.12 166.572C916.867 165.362 917.946 164.757 919.36 164.757ZM916.42 171.797C916.42 173.419 916.567 174.689 916.86 175.606L921.3 166.771C920.833 166.146 920.186 165.834 919.36 165.834C918.44 165.834 917.72 166.326 917.2 167.31C916.68 168.28 916.42 169.776 916.42 171.797ZM919.36 177.76C920.293 177.76 921.02 177.275 921.54 176.304C922.06 175.32 922.319 173.818 922.319 171.797C922.319 170.082 922.153 168.752 921.82 167.808L917.38 176.723C917.86 177.414 918.52 177.76 919.36 177.76Z" fill="url(#paint76_linear_175_198)"/>
<path d="M920.56 200.393H923.499V201.45H915.88V200.393H919.28V189.185L916.04 191.12L915.48 190.222L919.48 187.749H920.56V200.393Z" fill="url(#paint77_linear_175_198)"/>
<path d="M920.56 223.186H923.499V224.243H915.88V223.186H919.28V211.978L916.04 213.912L915.48 213.015L919.48 210.542H920.56V223.186Z" fill="url(#paint78_linear_175_198)"/>
<path d="M957.7 63.6365H960.64V64.6936H953.02V63.6365H956.42V52.4282L953.18 54.3627L952.62 53.4653L956.62 50.9922H957.7V63.6365Z" fill="url(#paint79_linear_175_198)"/>
<path d="M956.5 73.5856C957.927 73.5856 959.006 74.1906 959.74 75.4005C960.486 76.5971 960.86 78.3389 960.86 80.6257C960.86 82.9126 960.486 84.661 959.74 85.8709C959.006 87.0808 957.927 87.6858 956.5 87.6858C955.087 87.6858 954.007 87.0808 953.26 85.8709C952.514 84.661 952.14 82.9126 952.14 80.6257C952.14 78.3521 952.514 76.6104 953.26 75.4005C954.007 74.1906 955.087 73.5856 956.5 73.5856ZM953.56 80.6257C953.56 82.2478 953.707 83.5176 954 84.435L958.44 75.5999C957.973 74.975 957.327 74.6626 956.5 74.6626C955.58 74.6626 954.86 75.1545 954.34 76.1384C953.82 77.109 953.56 78.6048 953.56 80.6257ZM956.5 86.5889C957.433 86.5889 958.16 86.1036 958.68 85.133C959.2 84.1491 959.46 82.6467 959.46 80.6257C959.46 78.9106 959.293 77.581 958.96 76.637L954.52 85.5518C955 86.2432 955.66 86.5889 956.5 86.5889Z" fill="url(#paint80_linear_175_198)"/>
<path d="M957.7 109.222H960.64V110.279H953.02V109.222H956.42V98.0138L953.18 99.9483L952.62 99.0509L956.62 96.5778H957.7V109.222Z" fill="url(#paint81_linear_175_198)"/>
<path d="M957.7 132.015H960.64V133.072H953.02V132.015H956.42V120.807L953.18 122.741L952.62 121.844L956.62 119.371H957.7V132.015Z" fill="url(#paint82_linear_175_198)"/>
<path d="M956.5 141.964C957.927 141.964 959.006 142.569 959.74 143.779C960.486 144.976 960.86 146.717 960.86 149.004C960.86 151.291 960.486 153.039 959.74 154.249C959.006 155.459 957.927 156.064 956.5 156.064C955.087 156.064 954.007 155.459 953.26 154.249C952.514 153.039 952.14 151.291 952.14 149.004C952.14 146.731 952.514 144.989 953.26 143.779C954.007 142.569 955.087 141.964 956.5 141.964ZM953.56 149.004C953.56 150.626 953.707 151.896 954 152.813L958.44 143.978C957.973 143.353 957.327 143.041 956.5 143.041C955.58 143.041 954.86 143.533 954.34 144.517C953.82 145.487 953.56 146.983 953.56 149.004ZM956.5 154.967C957.433 154.967 958.16 154.482 958.68 153.511C959.2 152.528 959.46 151.025 959.46 149.004C959.46 147.289 959.293 145.959 958.96 145.015L954.52 153.93C955 154.622 955.66 154.967 956.5 154.967Z" fill="url(#paint83_linear_175_198)"/>
<path d="M957.7 177.601H960.64V178.658H953.02V177.601H956.42V166.392L953.18 168.327L952.62 167.429L956.62 164.956H957.7V177.601Z" fill="url(#paint84_linear_175_198)"/>
<path d="M957.7 200.393H960.64V201.45H953.02V200.393H956.42V189.185L953.18 191.12L952.62 190.222L956.62 187.749H957.7V200.393Z" fill="url(#paint85_linear_175_198)"/>
<path d="M956.5 210.342C957.927 210.342 959.006 210.947 959.74 212.157C960.486 213.354 960.86 215.096 960.86 217.383C960.86 219.669 960.486 221.418 959.74 222.628C959.006 223.838 957.927 224.443 956.5 224.443C955.087 224.443 954.007 223.838 953.26 222.628C952.514 221.418 952.14 219.669 952.14 217.383C952.14 215.109 952.514 213.367 953.26 212.157C954.007 210.947 955.087 210.342 956.5 210.342ZM953.56 217.383C953.56 219.005 953.707 220.274 954 221.192L958.44 212.357C957.973 211.732 957.327 211.419 956.5 211.419C955.58 211.419 954.86 211.911 954.34 212.895C953.82 213.866 953.56 215.362 953.56 217.383ZM956.5 223.346C957.433 223.346 958.16 222.86 958.68 221.89C959.2 220.906 959.46 219.404 959.46 217.383C959.46 215.667 959.293 214.338 958.96 213.394L954.52 222.309C955 223 955.66 223.346 956.5 223.346Z" fill="url(#paint86_linear_175_198)"/>
<path d="M957.7 245.979H960.64V247.036H953.02V245.979H956.42V234.771L953.18 236.705L952.62 235.808L956.62 233.335H957.7V245.979Z" fill="url(#paint87_linear_175_198)"/>
<path d="M956.5 255.928C957.927 255.928 959.006 256.533 959.74 257.743C960.486 258.94 960.86 260.681 960.86 262.968C960.86 265.255 960.486 267.003 959.74 268.213C959.006 269.423 957.927 270.028 956.5 270.028C955.087 270.028 954.007 269.423 953.26 268.213C952.514 267.003 952.14 265.255 952.14 262.968C952.14 260.695 952.514 258.953 953.26 257.743C954.007 256.533 955.087 255.928 956.5 255.928ZM953.56 262.968C953.56 264.59 953.707 265.86 954 266.777L958.44 257.942C957.973 257.317 957.327 257.005 956.5 257.005C955.58 257.005 954.86 257.497 954.34 258.481C953.82 259.451 953.56 260.947 953.56 262.968ZM956.5 268.931C957.433 268.931 958.16 268.446 958.68 267.475C959.2 266.492 959.46 264.989 959.46 262.968C959.46 261.253 959.293 259.923 958.96 258.979L954.52 267.894C955 268.586 955.66 268.931 956.5 268.931Z" fill="url(#paint88_linear_175_198)"/>
<path d="M993.64 50.7928C995.067 50.7928 996.147 51.3978 996.88 52.6077C997.627 53.8043 998 55.546 998 57.8329C998 60.1198 997.627 61.8682 996.88 63.0781C996.147 64.288 995.067 64.893 993.64 64.893C992.227 64.893 991.147 64.288 990.401 63.0781C989.654 61.8682 989.281 60.1198 989.281 57.8329C989.281 55.5593 989.654 53.8176 990.401 52.6077C991.147 51.3978 992.227 50.7928 993.64 50.7928ZM990.701 57.8329C990.701 59.455 990.847 60.7248 991.14 61.6422L995.58 52.8071C995.114 52.1822 994.467 51.8698 993.64 51.8698C992.72 51.8698 992 52.3617 991.48 53.3456C990.96 54.3162 990.701 55.812 990.701 57.8329ZM993.64 63.7961C994.574 63.7961 995.3 63.3108 995.82 62.3402C996.34 61.3563 996.6 59.8539 996.6 57.8329C996.6 56.1178 996.433 54.7882 996.1 53.8442L991.66 62.759C992.14 63.4504 992.8 63.7961 993.64 63.7961Z" fill="url(#paint89_linear_175_198)"/>
<path d="M994.84 86.4293H997.78V87.4864H990.161V86.4293H993.56V75.221L990.321 77.1555L989.761 76.2581L993.76 73.785H994.84V86.4293Z" fill="url(#paint90_linear_175_198)"/>
<path d="M994.84 109.222H997.78V110.279H990.161V109.222H993.56V98.0138L990.321 99.9483L989.761 99.0509L993.76 96.5778H994.84V109.222Z" fill="url(#paint91_linear_175_198)"/>
<path d="M993.64 119.171C995.067 119.171 996.147 119.776 996.88 120.986C997.627 122.183 998 123.924 998 126.211C998 128.498 997.627 130.247 996.88 131.457C996.147 132.666 995.067 133.271 993.64 133.271C992.227 133.271 991.147 132.666 990.401 131.457C989.654 130.247 989.281 128.498 989.281 126.211C989.281 123.938 989.654 122.196 990.401 120.986C991.147 119.776 992.227 119.171 993.64 119.171ZM990.701 126.211C990.701 127.833 990.847 129.103 991.14 130.021L995.58 121.186C995.114 120.561 994.467 120.248 993.64 120.248C992.72 120.248 992 120.74 991.48 121.724C990.96 122.695 990.701 124.19 990.701 126.211ZM993.64 132.174C994.574 132.174 995.3 131.689 995.82 130.719C996.34 129.735 996.6 128.232 996.6 126.211C996.6 124.496 996.433 123.167 996.1 122.223L991.66 131.137C992.14 131.829 992.8 132.174 993.64 132.174Z" fill="url(#paint92_linear_175_198)"/>
<path d="M993.64 141.964C995.067 141.964 996.147 142.569 996.88 143.779C997.627 144.976 998 146.717 998 149.004C998 151.291 997.627 153.039 996.88 154.249C996.147 155.459 995.067 156.064 993.64 156.064C992.227 156.064 991.147 155.459 990.401 154.249C989.654 153.039 989.281 151.291 989.281 149.004C989.281 146.731 989.654 144.989 990.401 143.779C991.147 142.569 992.227 141.964 993.64 141.964ZM990.701 149.004C990.701 150.626 990.847 151.896 991.14 152.813L995.58 143.978C995.114 143.353 994.467 143.041 993.64 143.041C992.72 143.041 992 143.533 991.48 144.517C990.96 145.487 990.701 146.983 990.701 149.004ZM993.64 154.967C994.574 154.967 995.3 154.482 995.82 153.511C996.34 152.528 996.6 151.025 996.6 149.004C996.6 147.289 996.433 145.959 996.1 145.015L991.66 153.93C992.14 154.622 992.8 154.967 993.64 154.967Z" fill="url(#paint93_linear_175_198)"/>
</g>
<defs>
<filter id="filter0_f_175_198" x="-540.19" y="-658.19" width="2141.38" height="1500.38" filterUnits="userSpaceOnUse" color-interpolation-filters="sRGB">
<feFlood flood-opacity="0" result="BackgroundImageFix"/>
<feBlend mode="normal" in="SourceGraphic" in2="BackgroundImageFix" result="shape"/>
<feGaussianBlur stdDeviation="200.095" result="effect1_foregroundBlur_175_198"/>
</filter>
<linearGradient id="paint0_linear_175_198" x1="70.5" y1="328" x2="70.5" y2="639.381" gradientUnits="userSpaceOnUse">
<stop stop-color="#F7DD43"/>
<stop offset="1" stop-color="#F7DD43" stop-opacity="0"/>
</linearGradient>
<linearGradient id="paint1_linear_175_198" x1="70.5" y1="328" x2="70.5" y2="639.381" gradientUnits="userSpaceOnUse">
<stop stop-color="#F7DD43"/>
<stop offset="1" stop-color="#F7DD43" stop-opacity="0"/>
</linearGradient>
<linearGradient id="paint2_linear_175_198" x1="70.5" y1="328" x2="70.5" y2="639.381" gradientUnits="userSpaceOnUse">
<stop stop-color="#F7DD43"/>
<stop offset="1" stop-color="#F7DD43" stop-opacity="0"/>
</linearGradient>
<linearGradient id="paint3_linear_175_198" x1="70.5" y1="328" x2="70.5" y2="639.381" gradientUnits="userSpaceOnUse">
<stop stop-color="#F7DD43"/>
<stop offset="1" stop-color="#F7DD43" stop-opacity="0"/>
</linearGradient>
<linearGradient id="paint4_linear_175_198" x1="70.5" y1="328" x2="70.5" y2="639.381" gradientUnits="userSpaceOnUse">
<stop stop-color="#F7DD43"/>
<stop offset="1" stop-color="#F7DD43" stop-opacity="0"/>
</linearGradient>
<linearGradient id="paint5_linear_175_198" x1="70.5" y1="328" x2="70.5" y2="639.381" gradientUnits="userSpaceOnUse">
<stop stop-color="#F7DD43"/>
<stop offset="1" stop-color="#F7DD43" stop-opacity="0"/>
</linearGradient>
<linearGradient id="paint6_linear_175_198" x1="70.5" y1="328" x2="70.5" y2="639.381" gradientUnits="userSpaceOnUse">
<stop stop-color="#F7DD43"/>
<stop offset="1" stop-color="#F7DD43" stop-opacity="0"/>
</linearGradient>
<linearGradient id="paint7_linear_175_198" x1="70.5" y1="328" x2="70.5" y2="639.381" gradientUnits="userSpaceOnUse">
<stop stop-color="#F7DD43"/>
<stop offset="1" stop-color="#F7DD43" stop-opacity="0"/>
</linearGradient>
<linearGradient id="paint8_linear_175_198" x1="70.5" y1="328" x2="70.5" y2="639.381" gradientUnits="userSpaceOnUse">
<stop stop-color="#F7DD43"/>
<stop offset="1" stop-color="#F7DD43" stop-opacity="0"/>
</linearGradient>
<linearGradient id="paint9_linear_175_198" x1="70.5" y1="328" x2="70.5" y2="639.381" gradientUnits="userSpaceOnUse">
<stop stop-color="#F7DD43"/>
<stop offset="1" stop-color="#F7DD43" stop-opacity="0"/>
</linearGradient>
<linearGradient id="paint10_linear_175_198" x1="70.5" y1="328" x2="70.5" y2="639.381" gradientUnits="userSpaceOnUse">
<stop stop-color="#F7DD43"/>
<stop offset="1" stop-color="#F7DD43" stop-opacity="0"/>
</linearGradient>
<linearGradient id="paint11_linear_175_198" x1="70.5" y1="328" x2="70.5" y2="639.381" gradientUnits="userSpaceOnUse">
<stop stop-color="#F7DD43"/>
<stop offset="1" stop-color="#F7DD43" stop-opacity="0"/>
</linearGradient>
<linearGradient id="paint12_linear_175_198" x1="70.5" y1="328" x2="70.5" y2="639.381" gradientUnits="userSpaceOnUse">
<stop stop-color="#F7DD43"/>
<stop offset="1" stop-color="#F7DD43" stop-opacity="0"/>
</linearGradient>
<linearGradient id="paint13_linear_175_198" x1="70.5" y1="328" x2="70.5" y2="639.381" gradientUnits="userSpaceOnUse">
<stop stop-color="#F7DD43"/>
<stop offset="1" stop-color="#F7DD43" stop-opacity="0"/>
</linearGradient>
<linearGradient id="paint14_linear_175_198" x1="70.5" y1="328" x2="70.5" y2="639.381" gradientUnits="userSpaceOnUse">
<stop stop-color="#F7DD43"/>
<stop offset="1" stop-color="#F7DD43" stop-opacity="0"/>
</linearGradient>
<linearGradient id="paint15_linear_175_198" x1="70.5" y1="328" x2="70.5" y2="639.381" gradientUnits="userSpaceOnUse">
<stop stop-color="#F7DD43"/>
<stop offset="1" stop-color="#F7DD43" stop-opacity="0"/>
</linearGradient>
<linearGradient id="paint16_linear_175_198" x1="70.5" y1="328" x2="70.5" y2="639.381" gradientUnits="userSpaceOnUse">
<stop stop-color="#F7DD43"/>
<stop offset="1" stop-color="#F7DD43" stop-opacity="0"/>
</linearGradient>
<linearGradient id="paint17_linear_175_198" x1="70.5" y1="328" x2="70.5" y2="639.381" gradientUnits="userSpaceOnUse">
<stop stop-color="#F7DD43"/>
<stop offset="1" stop-color="#F7DD43" stop-opacity="0"/>
</linearGradient>
<linearGradient id="paint18_linear_175_198" x1="70.5" y1="328" x2="70.5" y2="639.381" gradientUnits="userSpaceOnUse">
<stop stop-color="#F7DD43"/>
<stop offset="1" stop-color="#F7DD43" stop-opacity="0"/>
</linearGradient>
<linearGradient id="paint19_linear_175_198" x1="70.5" y1="328" x2="70.5" y2="639.381" gradientUnits="userSpaceOnUse">
<stop stop-color="#F7DD43"/>
<stop offset="1" stop-color="#F7DD43" stop-opacity="0"/>
</linearGradient>
<linearGradient id="paint20_linear_175_198" x1="70.5" y1="328" x2="70.5" y2="639.381" gradientUnits="userSpaceOnUse">
<stop stop-color="#F7DD43"/>
<stop offset="1" stop-color="#F7DD43" stop-opacity="0"/>
</linearGradient>
<linearGradient id="paint21_linear_175_198" x1="70.5" y1="328" x2="70.5" y2="639.381" gradientUnits="userSpaceOnUse">
<stop stop-color="#F7DD43"/>
<stop offset="1" stop-color="#F7DD43" stop-opacity="0"/>
</linearGradient>
<linearGradient id="paint22_linear_175_198" x1="70.5" y1="328" x2="70.5" y2="639.381" gradientUnits="userSpaceOnUse">
<stop stop-color="#F7DD43"/>
<stop offset="1" stop-color="#F7DD43" stop-opacity="0"/>
</linearGradient>
<linearGradient id="paint23_linear_175_198" x1="70.5" y1="328" x2="70.5" y2="639.381" gradientUnits="userSpaceOnUse">
<stop stop-color="#F7DD43"/>
<stop offset="1" stop-color="#F7DD43" stop-opacity="0"/>
</linearGradient>
<linearGradient id="paint24_linear_175_198" x1="70.5" y1="328" x2="70.5" y2="639.381" gradientUnits="userSpaceOnUse">
<stop stop-color="#F7DD43"/>
<stop offset="1" stop-color="#F7DD43" stop-opacity="0"/>
</linearGradient>
<linearGradient id="paint25_linear_175_198" x1="70.5" y1="328" x2="70.5" y2="639.381" gradientUnits="userSpaceOnUse">
<stop stop-color="#F7DD43"/>
<stop offset="1" stop-color="#F7DD43" stop-opacity="0"/>
</linearGradient>
<linearGradient id="paint26_linear_175_198" x1="70.5" y1="328" x2="70.5" y2="639.381" gradientUnits="userSpaceOnUse">
<stop stop-color="#F7DD43"/>
<stop offset="1" stop-color="#F7DD43" stop-opacity="0"/>
</linearGradient>
<linearGradient id="paint27_linear_175_198" x1="70.5" y1="328" x2="70.5" y2="639.381" gradientUnits="userSpaceOnUse">
<stop stop-color="#F7DD43"/>
<stop offset="1" stop-color="#F7DD43" stop-opacity="0"/>
</linearGradient>
<linearGradient id="paint28_linear_175_198" x1="70.5" y1="328" x2="70.5" y2="639.381" gradientUnits="userSpaceOnUse">
<stop stop-color="#F7DD43"/>
<stop offset="1" stop-color="#F7DD43" stop-opacity="0"/>
</linearGradient>
<linearGradient id="paint29_linear_175_198" x1="70.5" y1="328" x2="70.5" y2="639.381" gradientUnits="userSpaceOnUse">
<stop stop-color="#F7DD43"/>
<stop offset="1" stop-color="#F7DD43" stop-opacity="0"/>
</linearGradient>
<linearGradient id="paint30_linear_175_198" x1="70.5" y1="328" x2="70.5" y2="639.381" gradientUnits="userSpaceOnUse">
<stop stop-color="#F7DD43"/>
<stop offset="1" stop-color="#F7DD43" stop-opacity="0"/>
</linearGradient>
<linearGradient id="paint31_linear_175_198" x1="70.5" y1="328" x2="70.5" y2="639.381" gradientUnits="userSpaceOnUse">
<stop stop-color="#F7DD43"/>
<stop offset="1" stop-color="#F7DD43" stop-opacity="0"/>
</linearGradient>
<linearGradient id="paint32_linear_175_198" x1="70.5" y1="328" x2="70.5" y2="639.381" gradientUnits="userSpaceOnUse">
<stop stop-color="#F7DD43"/>
<stop offset="1" stop-color="#F7DD43" stop-opacity="0"/>
</linearGradient>
<linearGradient id="paint33_linear_175_198" x1="70.5" y1="328" x2="70.5" y2="639.381" gradientUnits="userSpaceOnUse">
<stop stop-color="#F7DD43"/>
<stop offset="1" stop-color="#F7DD43" stop-opacity="0"/>
</linearGradient>
<linearGradient id="paint34_linear_175_198" x1="70.5" y1="328" x2="70.5" y2="639.381" gradientUnits="userSpaceOnUse">
<stop stop-color="#F7DD43"/>
<stop offset="1" stop-color="#F7DD43" stop-opacity="0"/>
</linearGradient>
<linearGradient id="paint35_linear_175_198" x1="70.5" y1="328" x2="70.5" y2="639.381" gradientUnits="userSpaceOnUse">
<stop stop-color="#F7DD43"/>
<stop offset="1" stop-color="#F7DD43" stop-opacity="0"/>
</linearGradient>
<linearGradient id="paint36_linear_175_198" x1="70.5" y1="328" x2="70.5" y2="639.381" gradientUnits="userSpaceOnUse">
<stop stop-color="#F7DD43"/>
<stop offset="1" stop-color="#F7DD43" stop-opacity="0"/>
</linearGradient>
<linearGradient id="paint37_linear_175_198" x1="70.5" y1="328" x2="70.5" y2="639.381" gradientUnits="userSpaceOnUse">
<stop stop-color="#F7DD43"/>
<stop offset="1" stop-color="#F7DD43" stop-opacity="0"/>
</linearGradient>
<linearGradient id="paint38_linear_175_198" x1="70.5" y1="328" x2="70.5" y2="639.381" gradientUnits="userSpaceOnUse">
<stop stop-color="#F7DD43"/>
<stop offset="1" stop-color="#F7DD43" stop-opacity="0"/>
</linearGradient>
<linearGradient id="paint39_linear_175_198" x1="70.5" y1="328" x2="70.5" y2="639.381" gradientUnits="userSpaceOnUse">
<stop stop-color="#F7DD43"/>
<stop offset="1" stop-color="#F7DD43" stop-opacity="0"/>
</linearGradient>
<linearGradient id="paint40_linear_175_198" x1="70.5" y1="328" x2="70.5" y2="639.381" gradientUnits="userSpaceOnUse">
<stop stop-color="#F7DD43"/>
<stop offset="1" stop-color="#F7DD43" stop-opacity="0"/>
</linearGradient>
<linearGradient id="paint41_linear_175_198" x1="70.5" y1="328" x2="70.5" y2="639.381" gradientUnits="userSpaceOnUse">
<stop stop-color="#F7DD43"/>
<stop offset="1" stop-color="#F7DD43" stop-opacity="0"/>
</linearGradient>
<linearGradient id="paint42_linear_175_198" x1="70.5" y1="328" x2="70.5" y2="639.381" gradientUnits="userSpaceOnUse">
<stop stop-color="#F7DD43"/>
<stop offset="1" stop-color="#F7DD43" stop-opacity="0"/>
</linearGradient>
<linearGradient id="paint43_linear_175_198" x1="70.5" y1="328" x2="70.5" y2="639.381" gradientUnits="userSpaceOnUse">
<stop stop-color="#F7DD43"/>
<stop offset="1" stop-color="#F7DD43" stop-opacity="0"/>
</linearGradient>
<linearGradient id="paint44_linear_175_198" x1="70.5" y1="328" x2="70.5" y2="639.381" gradientUnits="userSpaceOnUse">
<stop stop-color="#F7DD43"/>
<stop offset="1" stop-color="#F7DD43" stop-opacity="0"/>
</linearGradient>
<linearGradient id="paint45_linear_175_198" x1="70.5" y1="328" x2="70.5" y2="639.381" gradientUnits="userSpaceOnUse">
<stop stop-color="#F7DD43"/>
<stop offset="1" stop-color="#F7DD43" stop-opacity="0"/>
</linearGradient>
<linearGradient id="paint46_linear_175_198" x1="70.5" y1="328" x2="70.5" y2="639.381" gradientUnits="userSpaceOnUse">
<stop stop-color="#F7DD43"/>
<stop offset="1" stop-color="#F7DD43" stop-opacity="0"/>
</linearGradient>
<linearGradient id="paint47_linear_175_198" x1="956.5" y1="28" x2="956.5" y2="326.818" gradientUnits="userSpaceOnUse">
<stop stop-color="#F7DD43"/>
<stop offset="1" stop-color="#F7DD43" stop-opacity="0"/>
</linearGradient>
<linearGradient id="paint48_linear_175_198" x1="956.5" y1="28" x2="956.5" y2="326.818" gradientUnits="userSpaceOnUse">
<stop stop-color="#F7DD43"/>
<stop offset="1" stop-color="#F7DD43" stop-opacity="0"/>
</linearGradient>
<linearGradient id="paint49_linear_175_198" x1="956.5" y1="28" x2="956.5" y2="326.818" gradientUnits="userSpaceOnUse">
<stop stop-color="#F7DD43"/>
<stop offset="1" stop-color="#F7DD43" stop-opacity="0"/>
</linearGradient>
<linearGradient id="paint50_linear_175_198" x1="956.5" y1="28" x2="956.5" y2="326.818" gradientUnits="userSpaceOnUse">
<stop stop-color="#F7DD43"/>
<stop offset="1" stop-color="#F7DD43" stop-opacity="0"/>
</linearGradient>
<linearGradient id="paint51_linear_175_198" x1="956.5" y1="28" x2="956.5" y2="326.818" gradientUnits="userSpaceOnUse">
<stop stop-color="#F7DD43"/>
<stop offset="1" stop-color="#F7DD43" stop-opacity="0"/>
</linearGradient>
<linearGradient id="paint52_linear_175_198" x1="956.5" y1="28" x2="956.5" y2="326.818" gradientUnits="userSpaceOnUse">
<stop stop-color="#F7DD43"/>
<stop offset="1" stop-color="#F7DD43" stop-opacity="0"/>
</linearGradient>
<linearGradient id="paint53_linear_175_198" x1="956.5" y1="28" x2="956.5" y2="326.818" gradientUnits="userSpaceOnUse">
<stop stop-color="#F7DD43"/>
<stop offset="1" stop-color="#F7DD43" stop-opacity="0"/>
</linearGradient>
<linearGradient id="paint54_linear_175_198" x1="956.5" y1="28" x2="956.5" y2="326.818" gradientUnits="userSpaceOnUse">
<stop stop-color="#F7DD43"/>
<stop offset="1" stop-color="#F7DD43" stop-opacity="0"/>
</linearGradient>
<linearGradient id="paint55_linear_175_198" x1="956.5" y1="28" x2="956.5" y2="326.818" gradientUnits="userSpaceOnUse">
<stop stop-color="#F7DD43"/>
<stop offset="1" stop-color="#F7DD43" stop-opacity="0"/>
</linearGradient>
<linearGradient id="paint56_linear_175_198" x1="956.5" y1="28" x2="956.5" y2="326.818" gradientUnits="userSpaceOnUse">
<stop stop-color="#F7DD43"/>
<stop offset="1" stop-color="#F7DD43" stop-opacity="0"/>
</linearGradient>
<linearGradient id="paint57_linear_175_198" x1="956.5" y1="28" x2="956.5" y2="326.818" gradientUnits="userSpaceOnUse">
<stop stop-color="#F7DD43"/>
<stop offset="1" stop-color="#F7DD43" stop-opacity="0"/>
</linearGradient>
<linearGradient id="paint58_linear_175_198" x1="956.5" y1="28" x2="956.5" y2="326.818" gradientUnits="userSpaceOnUse">
<stop stop-color="#F7DD43"/>
<stop offset="1" stop-color="#F7DD43" stop-opacity="0"/>
</linearGradient>
<linearGradient id="paint59_linear_175_198" x1="956.5" y1="28" x2="956.5" y2="326.818" gradientUnits="userSpaceOnUse">
<stop stop-color="#F7DD43"/>
<stop offset="1" stop-color="#F7DD43" stop-opacity="0"/>
</linearGradient>
<linearGradient id="paint60_linear_175_198" x1="956.5" y1="28" x2="956.5" y2="326.818" gradientUnits="userSpaceOnUse">
<stop stop-color="#F7DD43"/>
<stop offset="1" stop-color="#F7DD43" stop-opacity="0"/>
</linearGradient>
<linearGradient id="paint61_linear_175_198" x1="956.5" y1="28" x2="956.5" y2="326.818" gradientUnits="userSpaceOnUse">
<stop stop-color="#F7DD43"/>
<stop offset="1" stop-color="#F7DD43" stop-opacity="0"/>
</linearGradient>
<linearGradient id="paint62_linear_175_198" x1="956.5" y1="28" x2="956.5" y2="326.818" gradientUnits="userSpaceOnUse">
<stop stop-color="#F7DD43"/>
<stop offset="1" stop-color="#F7DD43" stop-opacity="0"/>
</linearGradient>
<linearGradient id="paint63_linear_175_198" x1="956.5" y1="28" x2="956.5" y2="326.818" gradientUnits="userSpaceOnUse">
<stop stop-color="#F7DD43"/>
<stop offset="1" stop-color="#F7DD43" stop-opacity="0"/>
</linearGradient>
<linearGradient id="paint64_linear_175_198" x1="956.5" y1="28" x2="956.5" y2="326.818" gradientUnits="userSpaceOnUse">
<stop stop-color="#F7DD43"/>
<stop offset="1" stop-color="#F7DD43" stop-opacity="0"/>
</linearGradient>
<linearGradient id="paint65_linear_175_198" x1="956.5" y1="28" x2="956.5" y2="326.818" gradientUnits="userSpaceOnUse">
<stop stop-color="#F7DD43"/>
<stop offset="1" stop-color="#F7DD43" stop-opacity="0"/>
</linearGradient>
<linearGradient id="paint66_linear_175_198" x1="956.5" y1="28" x2="956.5" y2="326.818" gradientUnits="userSpaceOnUse">
<stop stop-color="#F7DD43"/>
<stop offset="1" stop-color="#F7DD43" stop-opacity="0"/>
</linearGradient>
<linearGradient id="paint67_linear_175_198" x1="956.5" y1="28" x2="956.5" y2="326.818" gradientUnits="userSpaceOnUse">
<stop stop-color="#F7DD43"/>
<stop offset="1" stop-color="#F7DD43" stop-opacity="0"/>
</linearGradient>
<linearGradient id="paint68_linear_175_198" x1="956.5" y1="28" x2="956.5" y2="326.818" gradientUnits="userSpaceOnUse">
<stop stop-color="#F7DD43"/>
<stop offset="1" stop-color="#F7DD43" stop-opacity="0"/>
</linearGradient>
<linearGradient id="paint69_linear_175_198" x1="956.5" y1="28" x2="956.5" y2="326.818" gradientUnits="userSpaceOnUse">
<stop stop-color="#F7DD43"/>
<stop offset="1" stop-color="#F7DD43" stop-opacity="0"/>
</linearGradient>
<linearGradient id="paint70_linear_175_198" x1="956.5" y1="28" x2="956.5" y2="326.818" gradientUnits="userSpaceOnUse">
<stop stop-color="#F7DD43"/>
<stop offset="1" stop-color="#F7DD43" stop-opacity="0"/>
</linearGradient>
<linearGradient id="paint71_linear_175_198" x1="956.5" y1="28" x2="956.5" y2="326.818" gradientUnits="userSpaceOnUse">
<stop stop-color="#F7DD43"/>
<stop offset="1" stop-color="#F7DD43" stop-opacity="0"/>
</linearGradient>
<linearGradient id="paint72_linear_175_198" x1="956.5" y1="28" x2="956.5" y2="326.818" gradientUnits="userSpaceOnUse">
<stop stop-color="#F7DD43"/>
<stop offset="1" stop-color="#F7DD43" stop-opacity="0"/>
</linearGradient>
<linearGradient id="paint73_linear_175_198" x1="956.5" y1="28" x2="956.5" y2="326.818" gradientUnits="userSpaceOnUse">
<stop stop-color="#F7DD43"/>
<stop offset="1" stop-color="#F7DD43" stop-opacity="0"/>
</linearGradient>
<linearGradient id="paint74_linear_175_198" x1="956.5" y1="28" x2="956.5" y2="326.818" gradientUnits="userSpaceOnUse">
<stop stop-color="#F7DD43"/>
<stop offset="1" stop-color="#F7DD43" stop-opacity="0"/>
</linearGradient>
<linearGradient id="paint75_linear_175_198" x1="956.5" y1="28" x2="956.5" y2="326.818" gradientUnits="userSpaceOnUse">
<stop stop-color="#F7DD43"/>
<stop offset="1" stop-color="#F7DD43" stop-opacity="0"/>
</linearGradient>
<linearGradient id="paint76_linear_175_198" x1="956.5" y1="28" x2="956.5" y2="326.818" gradientUnits="userSpaceOnUse">
<stop stop-color="#F7DD43"/>
<stop offset="1" stop-color="#F7DD43" stop-opacity="0"/>
</linearGradient>
<linearGradient id="paint77_linear_175_198" x1="956.5" y1="28" x2="956.5" y2="326.818" gradientUnits="userSpaceOnUse">
<stop stop-color="#F7DD43"/>
<stop offset="1" stop-color="#F7DD43" stop-opacity="0"/>
</linearGradient>
<linearGradient id="paint78_linear_175_198" x1="956.5" y1="28" x2="956.5" y2="326.818" gradientUnits="userSpaceOnUse">
<stop stop-color="#F7DD43"/>
<stop offset="1" stop-color="#F7DD43" stop-opacity="0"/>
</linearGradient>
<linearGradient id="paint79_linear_175_198" x1="956.5" y1="28" x2="956.5" y2="326.818" gradientUnits="userSpaceOnUse">
<stop stop-color="#F7DD43"/>
<stop offset="1" stop-color="#F7DD43" stop-opacity="0"/>
</linearGradient>
<linearGradient id="paint80_linear_175_198" x1="956.5" y1="28" x2="956.5" y2="326.818" gradientUnits="userSpaceOnUse">
<stop stop-color="#F7DD43"/>
<stop offset="1" stop-color="#F7DD43" stop-opacity="0"/>
</linearGradient>
<linearGradient id="paint81_linear_175_198" x1="956.5" y1="28" x2="956.5" y2="326.818" gradientUnits="userSpaceOnUse">
<stop stop-color="#F7DD43"/>
<stop offset="1" stop-color="#F7DD43" stop-opacity="0"/>
</linearGradient>
<linearGradient id="paint82_linear_175_198" x1="956.5" y1="28" x2="956.5" y2="326.818" gradientUnits="userSpaceOnUse">
<stop stop-color="#F7DD43"/>
<stop offset="1" stop-color="#F7DD43" stop-opacity="0"/>
</linearGradient>
<linearGradient id="paint83_linear_175_198" x1="956.5" y1="28" x2="956.5" y2="326.818" gradientUnits="userSpaceOnUse">
<stop stop-color="#F7DD43"/>
<stop offset="1" stop-color="#F7DD43" stop-opacity="0"/>
</linearGradient>
<linearGradient id="paint84_linear_175_198" x1="956.5" y1="28" x2="956.5" y2="326.818" gradientUnits="userSpaceOnUse">
<stop stop-color="#F7DD43"/>
<stop offset="1" stop-color="#F7DD43" stop-opacity="0"/>
</linearGradient>
<linearGradient id="paint85_linear_175_198" x1="956.5" y1="28" x2="956.5" y2="326.818" gradientUnits="userSpaceOnUse">
<stop stop-color="#F7DD43"/>
<stop offset="1" stop-color="#F7DD43" stop-opacity="0"/>
</linearGradient>
<linearGradient id="paint86_linear_175_198" x1="956.5" y1="28" x2="956.5" y2="326.818" gradientUnits="userSpaceOnUse">
<stop stop-color="#F7DD43"/>
<stop offset="1" stop-color="#F7DD43" stop-opacity="0"/>
</linearGradient>
<linearGradient id="paint87_linear_175_198" x1="956.5" y1="28" x2="956.5" y2="326.818" gradientUnits="userSpaceOnUse">
<stop stop-color="#F7DD43"/>
<stop offset="1" stop-color="#F7DD43" stop-opacity="0"/>
</linearGradient>
<linearGradient id="paint88_linear_175_198" x1="956.5" y1="28" x2="956.5" y2="326.818" gradientUnits="userSpaceOnUse">
<stop stop-color="#F7DD43"/>
<stop offset="1" stop-color="#F7DD43" stop-opacity="0"/>
</linearGradient>
<linearGradient id="paint89_linear_175_198" x1="956.5" y1="28" x2="956.5" y2="326.818" gradientUnits="userSpaceOnUse">
<stop stop-color="#F7DD43"/>
<stop offset="1" stop-color="#F7DD43" stop-opacity="0"/>
</linearGradient>
<linearGradient id="paint90_linear_175_198" x1="956.5" y1="28" x2="956.5" y2="326.818" gradientUnits="userSpaceOnUse">
<stop stop-color="#F7DD43"/>
<stop offset="1" stop-color="#F7DD43" stop-opacity="0"/>
</linearGradient>
<linearGradient id="paint91_linear_175_198" x1="956.5" y1="28" x2="956.5" y2="326.818" gradientUnits="userSpaceOnUse">
<stop stop-color="#F7DD43"/>
<stop offset="1" stop-color="#F7DD43" stop-opacity="0"/>
</linearGradient>
<linearGradient id="paint92_linear_175_198" x1="956.5" y1="28" x2="956.5" y2="326.818" gradientUnits="userSpaceOnUse">
<stop stop-color="#F7DD43"/>
<stop offset="1" stop-color="#F7DD43" stop-opacity="0"/>
</linearGradient>
<linearGradient id="paint93_linear_175_198" x1="956.5" y1="28" x2="956.5" y2="326.818" gradientUnits="userSpaceOnUse">
<stop stop-color="#F7DD43"/>
<stop offset="1" stop-color="#F7DD43" stop-opacity="0"/>
</linearGradient>
</defs>
</svg>
